<?xml version="1.0" encoding="UTF-8" standalone="no"?>
<!DOCTYPE svg PUBLIC "-//W3C//DTD SVG 1.1//EN"
 "http://www.w3.org/Graphics/SVG/1.1/DTD/svg11.dtd">
<!-- Generated by graphviz version 2.43.0 (0)
 -->
<!-- Title: %3 Pages: 1 -->
<svg width="373pt" height="188pt"
 viewBox="0.00 0.00 372.74 188.00" xmlns="http://www.w3.org/2000/svg" xmlns:xlink="http://www.w3.org/1999/xlink">
<g id="graph0" class="graph" transform="scale(1 1) rotate(0) translate(4 184)">
<title>%3</title>
<polygon fill="white" stroke="transparent" points="-4,4 -4,-184 368.74,-184 368.74,4 -4,4"/>
<!-- 802 -->
<g id="node1" class="node">
<title>802</title>
<ellipse fill="none" stroke="blue" cx="73.44" cy="-18" rx="73.39" ry="18"/>
<text text-anchor="middle" x="73.44" y="-14.3" font-family="Times,serif" font-size="14.00">ADAM&#39;S APPLE</text>
</g>
<!-- 1333 -->
<g id="node2" class="node">
<title>1333</title>
<ellipse fill="none" stroke="red" cx="213.44" cy="-162" rx="34.39" ry="18"/>
<text text-anchor="middle" x="213.44" y="-158.3" font-family="Times,serif" font-size="14.00">NECK</text>
</g>
<!-- 1346 -->
<g id="node3" class="node">
<title>1346</title>
<ellipse fill="none" stroke="blue" cx="142.44" cy="-90" rx="45.49" ry="18"/>
<text text-anchor="middle" x="142.44" y="-86.3" font-family="Times,serif" font-size="14.00">THROAT</text>
</g>
<!-- 1333&#45;&gt;1346 -->
<g id="edge3" class="edge">
<title>1333&#45;&gt;1346</title>
<path fill="none" stroke="red" d="M198.04,-145.81C188.65,-136.56 176.47,-124.55 165.9,-114.13"/>
<polygon fill="red" stroke="red" points="168.14,-111.42 158.56,-106.89 163.22,-116.4 168.14,-111.42"/>
</g>
<!-- 1347 -->
<g id="node4" class="node">
<title>1347</title>
<ellipse fill="none" stroke="blue" cx="285.44" cy="-90" rx="79.09" ry="18"/>
<text text-anchor="middle" x="285.44" y="-86.3" font-family="Times,serif" font-size="14.00">NAPE (OF NECK)</text>
</g>
<!-- 1333&#45;&gt;1347 -->
<g id="edge4" class="edge">
<title>1333&#45;&gt;1347</title>
<path fill="none" stroke="red" d="M229.07,-145.81C238.39,-136.75 250.42,-125.05 260.98,-114.79"/>
<polygon fill="red" stroke="red" points="263.61,-117.11 268.34,-107.63 258.73,-112.09 263.61,-117.11"/>
</g>
<!-- 1346&#45;&gt;802 -->
<g id="edge1" class="edge">
<title>1346&#45;&gt;802</title>
<path fill="none" stroke="blue" d="M126.44,-72.76C117.68,-63.88 106.67,-52.71 96.96,-42.85"/>
<polygon fill="blue" stroke="blue" points="99.35,-40.3 89.84,-35.63 94.37,-45.21 99.35,-40.3"/>
</g>
<!-- 3714 -->
<g id="node5" class="node">
<title>3714</title>
<ellipse fill="none" stroke="blue" cx="212.44" cy="-18" rx="47.39" ry="18"/>
<text text-anchor="middle" x="212.44" y="-14.3" font-family="Times,serif" font-size="14.00">LARYNX</text>
</g>
<!-- 1346&#45;&gt;3714 -->
<g id="edge2" class="edge">
<title>1346&#45;&gt;3714</title>
<path fill="none" stroke="blue" d="M158.33,-73.12C167.33,-64.12 178.76,-52.68 188.8,-42.65"/>
<polygon fill="blue" stroke="blue" points="191.54,-44.85 196.14,-35.31 186.59,-39.9 191.54,-44.85"/>
</g>
</g>
</svg>
