<?xml version='1.0' encoding='utf8'?>
<svg xmlns:ns0="http://www.w3.org/2000/svg" class="toyplot-canvas-Canvas" xmlns:toyplot="http://www.sandia.gov/toyplot" xmlns:xlink="http://www.w3.org/1999/xlink" xmlns="http://www.w3.org/2000/svg" width="720.0px" height="403.0px" viewBox="0 0 720.0 403.0" preserveAspectRatio="xMidYMid meet" style="background-color:transparent;border-color:#292724;border-style:none;border-width:1.0;fill:rgb(16.1%,15.3%,14.1%);fill-opacity:1.0;font-family:Helvetica;font-size:12px;opacity:1.0;stroke:rgb(16.1%,15.3%,14.1%);stroke-opacity:1.0;stroke-width:1.0" id="t3a005726db77482da8d019097c54a7fe"><g class="toyplot-coordinates-Cartesian" id="taeff1342b5b64d9cb653233e53789e19"><clipPath id="t48f38dc6eec94b4f8eb5114467e92b03"><rect x="30.0" y="30.0" width="440.0" height="343.0" /></clipPath><g clip-path="url(#t48f38dc6eec94b4f8eb5114467e92b03)"><g class="toytree-mark-Toytree" id="tf479bbd6b9d94629b9b4ffd69f875d3e"><g class="toytree-Edges" style="fill:none;stroke:rgb(14.9%,14.9%,14.9%);stroke-linecap:round;stroke-opacity:1;stroke-width:2"><path d="M 51.2 170.0 L 51.2 170.0 L 66.9 170.0" id="76,75" /><path d="M 66.9 170.0 L 66.9 61.6 L 82.5 61.6" id="75,74" /><path d="M 66.9 170.0 L 66.9 89.6 L 82.5 89.6" id="75,73" /><path d="M 66.9 170.0 L 66.9 131.6 L 82.5 131.6" id="75,72" /><path d="M 66.9 170.0 L 66.9 187.5 L 82.5 187.5" id="75,71" /><path d="M 66.9 170.0 L 66.9 243.5 L 82.5 243.5" id="75,70" /><path d="M 66.9 170.0 L 66.9 306.4 L 82.5 306.4" id="75,69" /><path d="M 82.5 61.6 L 82.5 61.6 L 98.1 61.6" id="74,68" /><path d="M 82.5 89.6 L 82.5 89.6 L 98.1 89.6" id="73,67" /><path d="M 82.5 131.6 L 82.5 117.6 L 98.1 117.6" id="72,66" /><path d="M 82.5 131.6 L 82.5 145.6 L 98.1 145.6" id="72,65" /><path d="M 82.5 187.5 L 82.5 173.5 L 98.1 173.5" id="71,64" /><path d="M 82.5 187.5 L 82.5 201.5 L 98.1 201.5" id="71,63" /><path d="M 82.5 243.5 L 82.5 243.5 L 98.1 243.5" id="70,62" /><path d="M 82.5 306.4 L 82.5 306.4 L 98.1 306.4" id="69,61" /><path d="M 98.1 89.6 L 98.1 89.6 L 113.7 89.6" id="67,60" /><path d="M 98.1 145.6 L 98.1 145.6 L 113.7 145.6" id="65,59" /><path d="M 98.1 173.5 L 98.1 173.5 L 113.7 173.5" id="64,58" /><path d="M 98.1 201.5 L 98.1 201.5 L 113.7 201.5" id="63,57" /><path d="M 98.1 243.5 L 98.1 243.5 L 113.7 243.5" id="62,56" /><path d="M 98.1 306.4 L 98.1 306.4 L 113.7 306.4" id="61,55" /><path d="M 113.7 89.6 L 113.7 89.6 L 129.4 89.6" id="60,54" /><path d="M 113.7 173.5 L 113.7 173.5 L 129.4 173.5" id="58,53" /><path d="M 113.7 201.5 L 113.7 201.5 L 129.4 201.5" id="57,52" /><path d="M 113.7 243.5 L 113.7 243.5 L 129.4 243.5" id="56,51" /><path d="M 113.7 306.4 L 113.7 285.4 L 129.4 285.4" id="55,50" /><path d="M 113.7 306.4 L 113.7 327.4 L 129.4 327.4" id="55,49" /><path d="M 129.4 89.6 L 129.4 89.6 L 145.0 89.6" id="54,48" /><path d="M 129.4 173.5 L 129.4 173.5 L 145.0 173.5" id="53,47" /><path d="M 129.4 201.5 L 129.4 201.5 L 145.0 201.5" id="52,46" /><path d="M 129.4 243.5 L 129.4 243.5 L 145.0 243.5" id="51,45" /><path d="M 129.4 285.4 L 129.4 285.4 L 145.0 285.4" id="50,44" /><path d="M 129.4 327.4 L 129.4 327.4 L 145.0 327.4" id="49,43" /><path d="M 145.0 89.6 L 145.0 89.6 L 160.6 89.6" id="48,42" /><path d="M 145.0 173.5 L 145.0 173.5 L 160.6 173.5" id="47,41" /><path d="M 145.0 201.5 L 145.0 201.5 L 160.6 201.5" id="46,40" /><path d="M 145.0 243.5 L 145.0 243.5 L 160.6 243.5" id="45,39" /><path d="M 145.0 285.4 L 145.0 285.4 L 160.6 285.4" id="44,38" /><path d="M 145.0 327.4 L 145.0 327.4 L 160.6 327.4" id="43,37" /><path d="M 160.6 89.6 L 160.6 89.6 L 176.2 89.6" id="42,36" /><path d="M 160.6 173.5 L 160.6 173.5 L 176.2 173.5" id="41,35" /><path d="M 160.6 201.5 L 160.6 201.5 L 176.2 201.5" id="40,34" /><path d="M 160.6 243.5 L 160.6 243.5 L 176.2 243.5" id="39,33" /><path d="M 160.6 285.4 L 160.6 285.4 L 176.2 285.4" id="38,32" /><path d="M 160.6 327.4 L 160.6 327.4 L 176.2 327.4" id="37,31" /><path d="M 176.2 173.5 L 176.2 173.5 L 191.8 173.5" id="35,30" /><path d="M 176.2 243.5 L 176.2 243.5 L 191.8 243.5" id="33,29" /><path d="M 176.2 285.4 L 176.2 285.4 L 191.8 285.4" id="32,28" /><path d="M 176.2 327.4 L 176.2 327.4 L 191.8 327.4" id="31,27" /><path d="M 191.8 173.5 L 191.8 173.5 L 207.5 173.5" id="30,26" /><path d="M 191.8 243.5 L 191.8 229.5 L 207.5 229.5" id="29,25" /><path d="M 191.8 243.5 L 191.8 257.4 L 207.5 257.4" id="29,24" /><path d="M 191.8 285.4 L 191.8 285.4 L 207.5 285.4" id="28,23" /><path d="M 191.8 327.4 L 191.8 327.4 L 207.5 327.4" id="27,22" /><path d="M 207.5 229.5 L 207.5 229.5 L 223.1 229.5" id="25,21" /><path d="M 207.5 257.4 L 207.5 257.4 L 223.1 257.4" id="24,20" /><path d="M 207.5 327.4 L 207.5 341.4 L 223.1 341.4" id="22,19" /><path d="M 223.1 229.5 L 223.1 229.5 L 238.7 229.5" id="21,18" /><path d="M 223.1 257.4 L 223.1 257.4 L 238.7 257.4" id="20,17" /><path d="M 223.1 341.4 L 223.1 341.4 L 238.7 341.4" id="19,16" /><path d="M 238.7 229.5 L 238.7 229.5 L 254.3 229.5" id="18,15" /><path d="M 238.7 341.4 L 238.7 341.4 L 254.3 341.4" id="16,14" /><path d="M 254.3 229.5 L 254.3 229.5 L 269.9 229.5" id="15,13" /><path d="M 254.3 341.4 L 254.3 341.4 L 269.9 341.4" id="14,12" /><path d="M 269.9 229.5 L 269.9 229.5 L 285.6 229.5" id="13,11" /><path d="M 98.1 61.6 L 98.1 61.6 L 113.7 61.6" id="68,10" /><path d="M 176.2 89.6 L 176.2 89.6 L 191.8 89.6" id="36,9" /><path d="M 98.1 117.6 L 98.1 117.6 L 113.7 117.6" id="66,8" /><path d="M 113.7 145.6 L 113.7 145.6 L 129.4 145.6" id="59,7" /><path d="M 207.5 173.5 L 207.5 173.5 L 223.1 173.5" id="26,6" /><path d="M 176.2 201.5 L 176.2 201.5 L 191.8 201.5" id="34,5" /><path d="M 285.6 229.5 L 285.6 229.5 L 301.2 229.5" id="11,4" /><path d="M 238.7 257.4 L 238.7 257.4 L 254.3 257.4" id="17,3" /><path d="M 207.5 285.4 L 207.5 285.4 L 223.1 285.4" id="23,2" /><path d="M 207.5 327.4 L 207.5 313.4 L 223.1 313.4" id="22,1" /><path d="M 269.9 341.4 L 269.9 341.4 L 285.6 341.4" id="12,0" /></g><g class="toytree-AlignEdges" style="stroke:rgb(66.3%,66.3%,66.3%);stroke-dasharray:2, 4;stroke-linecap:round;stroke-opacity:1.0;stroke-width:2"><path d="M 301.2 341.4 L 285.6 341.4" /><path d="M 301.2 313.4 L 223.1 313.4" /><path d="M 301.2 285.4 L 223.1 285.4" /><path d="M 301.2 257.4 L 254.3 257.4" /><path d="M 301.2 229.5 L 301.2 229.5" /><path d="M 301.2 201.5 L 191.8 201.5" /><path d="M 301.2 173.5 L 223.1 173.5" /><path d="M 301.2 145.6 L 129.4 145.6" /><path d="M 301.2 117.6 L 113.7 117.6" /><path d="M 301.2 89.6 L 191.8 89.6" /><path d="M 301.2 61.6 L 113.7 61.6" /></g><g class="toytree-TipLabels" style="fill:rgb(14.9%,14.9%,14.9%);fill-opacity:1.0;font-family:helvetica;font-size:11px;font-weight:normal;stroke:none;white-space:pre"><g transform="translate(301.18,341.37)rotate(0)"><text x="30.0" y="2.81" style="">Ndyuka</text><g transform="translate(0,-10)"><ns0:path d="M10.0,10.0 L1.0,10.0 A9.0,9.0 0 0,1 19.0 10.0 L10.0,10.0" style="fill:#CC6677;stroke:none;" transform="rotate(90 10.0 10.0)" /><ns0:path d="M10.0,10.0 L19.0,10.0 A9.0,9.0 0 0,1 1.0 10.0 L10.0,10.0" style="fill:#5B000D;stroke:none;" transform="rotate(90 10.0 10.0)" /><ns0:circle cx="10.0" cy="10.0" r="9.0" style="stroke:black; fill:none;" />
</g></g><g transform="translate(301.18,313.39)rotate(0)"><text x="30.0" y="2.81" style="">English</text><g transform="translate(0,-10)"><ns0:path d="M10.0,10.0 L1.0,10.0 A9.0,9.0 0 0,1 19.0 10.0 L10.0,10.0" style="fill:#CC6677;stroke:none;" transform="rotate(90 10.0 10.0)" /><ns0:path d="M10.0,10.0 L19.0,10.0 A9.0,9.0 0 0,1 1.0 10.0 L10.0,10.0" style="fill:#5B000D;stroke:none;" transform="rotate(90 10.0 10.0)" /><ns0:circle cx="10.0" cy="10.0" r="9.0" style="stroke:black; fill:none;" />
</g></g><g transform="translate(301.18,285.42)rotate(0)"><text x="30.0" y="2.81" style="">German (Timisoara)</text><g transform="translate(0,-10)"><ns0:path d="M10.0,10.0 L1.0,10.0 A9.0,9.0 0 0,1 19.0 10.0 L10.0,10.0" style="fill:#CC6677;stroke:none;" transform="rotate(90 10.0 10.0)" /><ns0:path d="M10.0,10.0 L19.0,10.0 A9.0,9.0 0 0,1 1.0 10.0 L10.0,10.0" style="fill:#00FFDF;stroke:none;" transform="rotate(90 10.0 10.0)" /><ns0:circle cx="10.0" cy="10.0" r="9.0" style="stroke:black; fill:none;" />
</g></g><g transform="translate(301.18,257.45)rotate(0)"><text x="30.0" y="2.81" style="">Spanish (Canary Islands)</text><g transform="translate(0,-10)"><ns0:path d="M10.0,10.0 L1.0,10.0 A9.0,9.0 0 0,1 19.0 10.0 L10.0,10.0" style="fill:#CC6677;stroke:none;" transform="rotate(90 10.0 10.0)" /><ns0:path d="M10.0,10.0 L19.0,10.0 A9.0,9.0 0 0,1 1.0 10.0 L10.0,10.0" style="fill:#5B000D;stroke:none;" transform="rotate(90 10.0 10.0)" /><ns0:circle cx="10.0" cy="10.0" r="9.0" style="stroke:black; fill:none;" />
</g></g><g transform="translate(301.18,229.47)rotate(0)"><text x="30.0" y="2.81" style="">French</text><g transform="translate(0,-10)"><ns0:path d="M10.0,10.0 L1.0,10.0 A9.0,9.0 0 0,1 19.0 10.0 L10.0,10.0" style="fill:#4477AA;stroke:none;" transform="rotate(90 10.0 10.0)" /><ns0:path d="M10.0,10.0 L19.0,10.0 A9.0,9.0 0 0,1 1.0 10.0 L10.0,10.0" style="fill:#00FFDF;stroke:none;" transform="rotate(90 10.0 10.0)" /><ns0:circle cx="10.0" cy="10.0" r="9.0" style="stroke:black; fill:none;" />
</g></g><g transform="translate(301.18,201.50)rotate(0)"><text x="30.0" y="2.81" style="">Persian</text><g transform="translate(0,-10)"><ns0:path d="M10.0,10.0 L1.0,10.0 A9.0,9.0 0 0,1 19.0 10.0 L10.0,10.0" style="fill:#CC6677;stroke:none;" transform="rotate(90 10.0 10.0)" /><ns0:path d="M10.0,10.0 L19.0,10.0 A9.0,9.0 0 0,1 1.0 10.0 L10.0,10.0" style="fill:#5B000D;stroke:none;" transform="rotate(90 10.0 10.0)" /><ns0:circle cx="10.0" cy="10.0" r="9.0" style="stroke:black; fill:none;" />
</g></g><g transform="translate(301.18,173.53)rotate(0)"><text x="30.0" y="2.81" style="">Hindi</text><g transform="translate(0,-10)"><ns0:path d="M10.0,10.0 L1.0,10.0 A9.0,9.0 0 0,1 19.0 10.0 L10.0,10.0" style="fill:#4477AA;stroke:none;" transform="rotate(90 10.0 10.0)" /><ns0:path d="M10.0,10.0 L19.0,10.0 A9.0,9.0 0 0,1 1.0 10.0 L10.0,10.0" style="fill:#5B000D;stroke:none;" transform="rotate(90 10.0 10.0)" /><ns0:circle cx="10.0" cy="10.0" r="9.0" style="stroke:black; fill:none;" />
</g></g><g transform="translate(301.18,145.55)rotate(0)"><text x="30.0" y="2.81" style="">Russian</text><g transform="translate(0,-10)"><ns0:path d="M10.0,10.0 L1.0,10.0 A9.0,9.0 0 0,1 19.0 10.0 L10.0,10.0" style="fill:#CC6677;stroke:none;" transform="rotate(90 10.0 10.0)" /><ns0:path d="M10.0,10.0 L19.0,10.0 A9.0,9.0 0 0,1 1.0 10.0 L10.0,10.0" style="fill:#5B000D;stroke:none;" transform="rotate(90 10.0 10.0)" /><ns0:circle cx="10.0" cy="10.0" r="9.0" style="stroke:black; fill:none;" />
</g></g><g transform="translate(301.18,117.58)rotate(0)"><text x="30.0" y="2.81" style="">Latvian</text><g transform="translate(0,-10)"><ns0:path d="M10.0,10.0 L1.0,10.0 A9.0,9.0 0 0,1 19.0 10.0 L10.0,10.0" style="fill:#CC6677;stroke:none;" transform="rotate(90 10.0 10.0)" /><ns0:path d="M10.0,10.0 L19.0,10.0 A9.0,9.0 0 0,1 1.0 10.0 L10.0,10.0" style="fill:#5B000D;stroke:none;" transform="rotate(90 10.0 10.0)" /><ns0:circle cx="10.0" cy="10.0" r="9.0" style="stroke:black; fill:none;" />
</g></g><g transform="translate(301.18,89.61)rotate(0)"><text x="30.0" y="2.81" style="">Greek (Modern)</text><g transform="translate(0,-10)"><ns0:path d="M10.0,10.0 L1.0,10.0 A9.0,9.0 0 0,1 19.0 10.0 L10.0,10.0" style="fill:#CC6677;stroke:none;" transform="rotate(90 10.0 10.0)" /><ns0:path d="M10.0,10.0 L19.0,10.0 A9.0,9.0 0 0,1 1.0 10.0 L10.0,10.0" style="fill:#5B000D;stroke:none;" transform="rotate(90 10.0 10.0)" /><ns0:circle cx="10.0" cy="10.0" r="9.0" style="stroke:black; fill:none;" />
</g></g><g transform="translate(301.18,61.63)rotate(0)"><text x="30.0" y="2.81" style="">Armenian (Iranian)</text><g transform="translate(0,-10)"><ns0:path d="M10.0,10.0 L1.0,10.0 A9.0,9.0 0 0,1 19.0 10.0 L10.0,10.0" style="fill:#CC6677;stroke:none;" transform="rotate(90 10.0 10.0)" /><ns0:path d="M10.0,10.0 L19.0,10.0 A9.0,9.0 0 0,1 1.0 10.0 L10.0,10.0" style="fill:#5B000D;stroke:none;" transform="rotate(90 10.0 10.0)" /><ns0:circle cx="10.0" cy="10.0" r="9.0" style="stroke:black; fill:none;" />
</g></g></g></g></g><g class="toyplot-coordinates-Axis" id="tbd347b7af0744a43882aa057840ef0a5" transform="translate(50.0,353.0)translate(0,20.0)"><line x1="1.2496446323076609" y1="0" x2="251.1785710938452" y2="0" style="" /><g><line x1="251.1785710938452" y1="0" x2="251.1785710938452" y2="-5" style="" /><line x1="188.69633947846077" y1="0" x2="188.69633947846077" y2="-5" style="" /><line x1="126.2141078630764" y1="0" x2="126.2141078630764" y2="-5" style="" /><line x1="63.73187624769203" y1="0" x2="63.73187624769203" y2="-5" style="" /><line x1="1.2496446323076609" y1="0" x2="1.2496446323076609" y2="-5" style="" /></g><g><g transform="translate(251.1785710938452,6)"><text x="-2.78" y="8.555" style="fill:rgb(16.1%,15.3%,14.1%);fill-opacity:1.0;font-family:helvetica;font-size:10.0px;font-weight:normal;stroke:none;vertical-align:baseline;white-space:pre">0</text></g><g transform="translate(188.69633947846077,6)"><text x="-2.78" y="8.555" style="fill:rgb(16.1%,15.3%,14.1%);fill-opacity:1.0;font-family:helvetica;font-size:10.0px;font-weight:normal;stroke:none;vertical-align:baseline;white-space:pre">4</text></g><g transform="translate(126.2141078630764,6)"><text x="-2.78" y="8.555" style="fill:rgb(16.1%,15.3%,14.1%);fill-opacity:1.0;font-family:helvetica;font-size:10.0px;font-weight:normal;stroke:none;vertical-align:baseline;white-space:pre">8</text></g><g transform="translate(63.73187624769203,6)"><text x="-5.56" y="8.555" style="fill:rgb(16.1%,15.3%,14.1%);fill-opacity:1.0;font-family:helvetica;font-size:10.0px;font-weight:normal;stroke:none;vertical-align:baseline;white-space:pre">12</text></g><g transform="translate(1.2496446323076609,6)"><text x="-5.56" y="8.555" style="fill:rgb(16.1%,15.3%,14.1%);fill-opacity:1.0;font-family:helvetica;font-size:10.0px;font-weight:normal;stroke:none;vertical-align:baseline;white-space:pre">16</text></g></g><g class="toyplot-coordinates-Axis-coordinates" style="visibility:hidden" transform=""><line x1="0" x2="0" y1="-3.0" y2="4.5" style="stroke:rgb(43.9%,50.2%,56.5%);stroke-opacity:1.0;stroke-width:1.0" /><text x="0" y="-6" style="alignment-baseline:alphabetic;fill:rgb(43.9%,50.2%,56.5%);fill-opacity:1.0;font-size:10px;font-weight:normal;stroke:none;text-anchor:middle" /></g></g><g transform="translate(250.0,42.0)"><text x="-265.671" y="-4.823" style="fill:rgb(16.1%,15.3%,14.1%);fill-opacity:1.0;font-family:helvetica;font-size:14.0px;font-weight:bold;stroke:none;vertical-align:baseline;white-space:pre">indo1319 - Glottolog classification of the languages in the family Indo-European</text></g></g><g transform="translate(480.0,45)" style="font-size: 12px"><rect x="0" y="0" width="200" height="208" rx="5" fill="white" /><g transform="translate(10,5)"><ns0:path d="M10.0,10.0 L1.0,10.0 A9.0,9.0 0 0,1 19.0 10.0 L10.0,10.0" style="fill:#000000;stroke:none;" transform="rotate(90 10.0 10.0)" /><ns0:path d="M10.0,10.0 L19.0,10.0 A9.0,9.0 0 0,1 1.0 10.0 L10.0,10.0" style="fill:#FFFFFF;stroke:none;" transform="rotate(90 10.0 10.0)" /><ns0:circle cx="10.0" cy="10.0" r="9.0" style="stroke:black; fill:none;" />
<text x="30" y="15" stroke-width="0" font-weight="bold">Vowel Nasalization</text></g><g transform="translate(10,30)"><ns0:path d="M10.0,10.0 L1.0,10.0 A9.0,9.0 0 0,1 19.0 10.0 L10.0,10.0" style="fill:#4477AA;stroke:none;" transform="rotate(90 10.0 10.0)" /><ns0:path d="M10.0,10.0 L19.0,10.0 A9.0,9.0 0 0,1 1.0 10.0 L10.0,10.0" style="fill:#FFFFFF;stroke:none;" transform="rotate(90 10.0 10.0)" /><ns0:circle cx="10.0" cy="10.0" r="9.0" style="stroke:black; fill:none;" />
<text x="30" y="15" stroke-width="0">Contrast present</text></g><g transform="translate(10,55)"><ns0:path d="M10.0,10.0 L1.0,10.0 A9.0,9.0 0 0,1 19.0 10.0 L10.0,10.0" style="fill:#CC6677;stroke:none;" transform="rotate(90 10.0 10.0)" /><ns0:path d="M10.0,10.0 L19.0,10.0 A9.0,9.0 0 0,1 1.0 10.0 L10.0,10.0" style="fill:#FFFFFF;stroke:none;" transform="rotate(90 10.0 10.0)" /><ns0:circle cx="10.0" cy="10.0" r="9.0" style="stroke:black; fill:none;" />
<text x="30" y="15" stroke-width="0">Contrast absent</text></g><line x1="5" y1="80" x2="195" y2="80" stroke="black" /><g transform="translate(10,83)"><ns0:path d="M10.0,10.0 L1.0,10.0 A9.0,9.0 0 0,1 19.0 10.0 L10.0,10.0" style="fill:#FFFFFF;stroke:none;" transform="rotate(90 10.0 10.0)" /><ns0:path d="M10.0,10.0 L19.0,10.0 A9.0,9.0 0 0,1 1.0 10.0 L10.0,10.0" style="fill:#000000;stroke:none;" transform="rotate(90 10.0 10.0)" /><ns0:circle cx="10.0" cy="10.0" r="9.0" style="stroke:black; fill:none;" />
<text x="30" y="15" stroke-width="0" font-weight="bold">Front Rounded Vowels</text></g><g transform="translate(10,108)"><ns0:path d="M10.0,10.0 L1.0,10.0 A9.0,9.0 0 0,1 19.0 10.0 L10.0,10.0" style="fill:#FFFFFF;stroke:none;" transform="rotate(90 10.0 10.0)" /><ns0:path d="M10.0,10.0 L19.0,10.0 A9.0,9.0 0 0,1 1.0 10.0 L10.0,10.0" style="fill:#5B000D;stroke:none;" transform="rotate(90 10.0 10.0)" /><ns0:circle cx="10.0" cy="10.0" r="9.0" style="stroke:black; fill:none;" />
<text x="30" y="15" stroke-width="0">None</text></g><g transform="translate(10,133)"><ns0:path d="M10.0,10.0 L1.0,10.0 A9.0,9.0 0 0,1 19.0 10.0 L10.0,10.0" style="fill:#FFFFFF;stroke:none;" transform="rotate(90 10.0 10.0)" /><ns0:path d="M10.0,10.0 L19.0,10.0 A9.0,9.0 0 0,1 1.0 10.0 L10.0,10.0" style="fill:#00FFDF;stroke:none;" transform="rotate(90 10.0 10.0)" /><ns0:circle cx="10.0" cy="10.0" r="9.0" style="stroke:black; fill:none;" />
<text x="30" y="15" stroke-width="0">High and mid</text></g><g transform="translate(10,158)"><ns0:path d="M10.0,10.0 L1.0,10.0 A9.0,9.0 0 0,1 19.0 10.0 L10.0,10.0" style="fill:#FFFFFF;stroke:none;" transform="rotate(90 10.0 10.0)" /><ns0:path d="M10.0,10.0 L19.0,10.0 A9.0,9.0 0 0,1 1.0 10.0 L10.0,10.0" style="fill:#17A9FF;stroke:none;" transform="rotate(90 10.0 10.0)" /><ns0:circle cx="10.0" cy="10.0" r="9.0" style="stroke:black; fill:none;" />
<text x="30" y="15" stroke-width="0">High only</text></g><g transform="translate(10,183)"><ns0:path d="M10.0,10.0 L1.0,10.0 A9.0,9.0 0 0,1 19.0 10.0 L10.0,10.0" style="fill:#FFFFFF;stroke:none;" transform="rotate(90 10.0 10.0)" /><ns0:path d="M10.0,10.0 L19.0,10.0 A9.0,9.0 0 0,1 1.0 10.0 L10.0,10.0" style="fill:#FFE800;stroke:none;" transform="rotate(90 10.0 10.0)" /><ns0:circle cx="10.0" cy="10.0" r="9.0" style="stroke:black; fill:none;" />
<text x="30" y="15" stroke-width="0">Mid only</text></g></g></svg>