<?xml version='1.0' encoding='utf8'?>
<svg xmlns:ns0="http://www.w3.org/2000/svg" class="toyplot-canvas-Canvas" xmlns:toyplot="http://www.sandia.gov/toyplot" xmlns:xlink="http://www.w3.org/1999/xlink" xmlns="http://www.w3.org/2000/svg" width="720.0px" height="426.0px" viewBox="0 0 720.0 426.0" preserveAspectRatio="xMidYMid meet" style="background-color:transparent;border-color:#292724;border-style:none;border-width:1.0;fill:rgb(16.1%,15.3%,14.1%);fill-opacity:1.0;font-family:Helvetica;font-size:12px;opacity:1.0;stroke:rgb(16.1%,15.3%,14.1%);stroke-opacity:1.0;stroke-width:1.0" id="td9e8e7fbf1f848ae8ac263662d794347"><g class="toyplot-coordinates-Cartesian" id="tbb4b67ad9be74133b461db30a1fa64f8"><clipPath id="te6db81c145de464284fc6d4348ca643a"><rect x="30.0" y="30.0" width="440.0" height="366.0" /></clipPath><g clip-path="url(#te6db81c145de464284fc6d4348ca643a)"><g class="toytree-mark-Toytree" id="tf24e15dc0b43413ba4c688aa52b8fccd"><g class="toytree-Edges" style="fill:none;stroke:rgb(14.9%,14.9%,14.9%);stroke-linecap:round;stroke-opacity:1;stroke-width:2"><path d="M 51.2 176.6 L 51.2 176.6 L 66.9 176.6" id="83,82" /><path d="M 66.9 176.6 L 66.9 61.7 L 82.5 61.7" id="82,81" /><path d="M 66.9 176.6 L 66.9 89.2 L 82.5 89.2" id="82,80" /><path d="M 66.9 176.6 L 66.9 116.7 L 82.5 116.7" id="82,79" /><path d="M 66.9 176.6 L 66.9 158.0 L 82.5 158.0" id="82,78" /><path d="M 66.9 176.6 L 66.9 213.0 L 82.5 213.0" id="82,77" /><path d="M 66.9 176.6 L 66.9 268.0 L 82.5 268.0" id="82,76" /><path d="M 66.9 176.6 L 66.9 329.9 L 82.5 329.9" id="82,75" /><path d="M 82.5 61.7 L 82.5 61.7 L 98.1 61.7" id="81,74" /><path d="M 82.5 89.2 L 82.5 89.2 L 98.1 89.2" id="80,73" /><path d="M 82.5 116.7 L 82.5 116.7 L 98.1 116.7" id="79,72" /><path d="M 82.5 158.0 L 82.5 144.2 L 98.1 144.2" id="78,71" /><path d="M 82.5 158.0 L 82.5 171.7 L 98.1 171.7" id="78,70" /><path d="M 82.5 213.0 L 82.5 199.2 L 98.1 199.2" id="77,69" /><path d="M 82.5 213.0 L 82.5 226.8 L 98.1 226.8" id="77,68" /><path d="M 82.5 268.0 L 82.5 268.0 L 98.1 268.0" id="76,67" /><path d="M 82.5 329.9 L 82.5 329.9 L 98.1 329.9" id="75,66" /><path d="M 98.1 89.2 L 98.1 89.2 L 113.7 89.2" id="73,65" /><path d="M 98.1 116.7 L 98.1 116.7 L 113.7 116.7" id="72,64" /><path d="M 98.1 171.7 L 98.1 171.7 L 113.7 171.7" id="70,63" /><path d="M 98.1 199.2 L 98.1 199.2 L 113.7 199.2" id="69,62" /><path d="M 98.1 226.8 L 98.1 226.8 L 113.7 226.8" id="68,61" /><path d="M 98.1 268.0 L 98.1 268.0 L 113.7 268.0" id="67,60" /><path d="M 98.1 329.9 L 98.1 329.9 L 113.7 329.9" id="66,59" /><path d="M 113.7 89.2 L 113.7 89.2 L 129.4 89.2" id="65,58" /><path d="M 113.7 116.7 L 113.7 116.7 L 129.4 116.7" id="64,57" /><path d="M 113.7 199.2 L 113.7 199.2 L 129.4 199.2" id="62,56" /><path d="M 113.7 226.8 L 113.7 226.8 L 129.4 226.8" id="61,55" /><path d="M 113.7 268.0 L 113.7 268.0 L 129.4 268.0" id="60,54" /><path d="M 113.7 329.9 L 113.7 309.3 L 129.4 309.3" id="59,53" /><path d="M 113.7 329.9 L 113.7 350.5 L 129.4 350.5" id="59,52" /><path d="M 129.4 89.2 L 129.4 89.2 L 145.0 89.2" id="58,51" /><path d="M 129.4 116.7 L 129.4 116.7 L 145.0 116.7" id="57,50" /><path d="M 129.4 199.2 L 129.4 199.2 L 145.0 199.2" id="56,49" /><path d="M 129.4 226.8 L 129.4 226.8 L 145.0 226.8" id="55,48" /><path d="M 129.4 268.0 L 129.4 268.0 L 145.0 268.0" id="54,47" /><path d="M 129.4 309.3 L 129.4 309.3 L 145.0 309.3" id="53,46" /><path d="M 129.4 350.5 L 129.4 350.5 L 145.0 350.5" id="52,45" /><path d="M 145.0 89.2 L 145.0 89.2 L 160.6 89.2" id="51,44" /><path d="M 145.0 116.7 L 145.0 116.7 L 160.6 116.7" id="50,43" /><path d="M 145.0 199.2 L 145.0 199.2 L 160.6 199.2" id="49,42" /><path d="M 145.0 226.8 L 145.0 226.8 L 160.6 226.8" id="48,41" /><path d="M 145.0 268.0 L 145.0 268.0 L 160.6 268.0" id="47,40" /><path d="M 145.0 309.3 L 145.0 309.3 L 160.6 309.3" id="46,39" /><path d="M 145.0 350.5 L 145.0 350.5 L 160.6 350.5" id="45,38" /><path d="M 160.6 116.7 L 160.6 116.7 L 176.2 116.7" id="43,37" /><path d="M 160.6 199.2 L 160.6 199.2 L 176.2 199.2" id="42,36" /><path d="M 160.6 226.8 L 160.6 226.8 L 176.2 226.8" id="41,35" /><path d="M 160.6 268.0 L 160.6 268.0 L 176.2 268.0" id="40,34" /><path d="M 160.6 309.3 L 160.6 309.3 L 176.2 309.3" id="39,33" /><path d="M 160.6 350.5 L 160.6 350.5 L 176.2 350.5" id="38,32" /><path d="M 176.2 199.2 L 176.2 199.2 L 191.8 199.2" id="36,31" /><path d="M 176.2 268.0 L 176.2 268.0 L 191.8 268.0" id="34,30" /><path d="M 176.2 309.3 L 176.2 309.3 L 191.8 309.3" id="33,29" /><path d="M 176.2 350.5 L 176.2 350.5 L 191.8 350.5" id="32,28" /><path d="M 191.8 199.2 L 191.8 199.2 L 207.5 199.2" id="31,27" /><path d="M 191.8 268.0 L 191.8 254.3 L 207.5 254.3" id="30,26" /><path d="M 191.8 268.0 L 191.8 281.8 L 207.5 281.8" id="30,25" /><path d="M 191.8 309.3 L 191.8 309.3 L 207.5 309.3" id="29,24" /><path d="M 191.8 350.5 L 191.8 350.5 L 207.5 350.5" id="28,23" /><path d="M 207.5 254.3 L 207.5 254.3 L 223.1 254.3" id="26,22" /><path d="M 207.5 281.8 L 207.5 281.8 L 223.1 281.8" id="25,21" /><path d="M 207.5 350.5 L 207.5 364.3 L 223.1 364.3" id="23,20" /><path d="M 223.1 254.3 L 223.1 254.3 L 238.7 254.3" id="22,19" /><path d="M 223.1 281.8 L 223.1 281.8 L 238.7 281.8" id="21,18" /><path d="M 223.1 364.3 L 223.1 364.3 L 238.7 364.3" id="20,17" /><path d="M 238.7 254.3 L 238.7 254.3 L 254.3 254.3" id="19,16" /><path d="M 238.7 364.3 L 238.7 364.3 L 254.3 364.3" id="17,15" /><path d="M 254.3 254.3 L 254.3 254.3 L 269.9 254.3" id="16,14" /><path d="M 254.3 364.3 L 254.3 364.3 L 269.9 364.3" id="15,13" /><path d="M 269.9 254.3 L 269.9 254.3 L 285.6 254.3" id="14,12" /><path d="M 98.1 61.7 L 98.1 61.7 L 113.7 61.7" id="74,11" /><path d="M 160.6 89.2 L 160.6 89.2 L 176.2 89.2" id="44,10" /><path d="M 176.2 116.7 L 176.2 116.7 L 191.8 116.7" id="37,9" /><path d="M 98.1 144.2 L 98.1 144.2 L 113.7 144.2" id="71,8" /><path d="M 113.7 171.7 L 113.7 171.7 L 129.4 171.7" id="63,7" /><path d="M 207.5 199.2 L 207.5 199.2 L 223.1 199.2" id="27,6" /><path d="M 176.2 226.8 L 176.2 226.8 L 191.8 226.8" id="35,5" /><path d="M 285.6 254.3 L 285.6 254.3 L 301.2 254.3" id="12,4" /><path d="M 238.7 281.8 L 238.7 281.8 L 254.3 281.8" id="18,3" /><path d="M 207.5 309.3 L 207.5 309.3 L 223.1 309.3" id="24,2" /><path d="M 207.5 350.5 L 207.5 336.8 L 223.1 336.8" id="23,1" /><path d="M 269.9 364.3 L 269.9 364.3 L 285.6 364.3" id="13,0" /></g><g class="toytree-AlignEdges" style="stroke:rgb(66.3%,66.3%,66.3%);stroke-dasharray:2, 4;stroke-linecap:round;stroke-opacity:1.0;stroke-width:2"><path d="M 301.2 364.3 L 285.6 364.3" /><path d="M 301.2 336.8 L 223.1 336.8" /><path d="M 301.2 309.3 L 223.1 309.3" /><path d="M 301.2 281.8 L 254.3 281.8" /><path d="M 301.2 254.3 L 301.2 254.3" /><path d="M 301.2 226.8 L 191.8 226.8" /><path d="M 301.2 199.2 L 223.1 199.2" /><path d="M 301.2 171.7 L 129.4 171.7" /><path d="M 301.2 144.2 L 113.7 144.2" /><path d="M 301.2 116.7 L 191.8 116.7" /><path d="M 301.2 89.2 L 176.2 89.2" /><path d="M 301.2 61.7 L 113.7 61.7" /></g><g class="toytree-TipLabels" style="fill:rgb(14.9%,14.9%,14.9%);fill-opacity:1.0;font-family:helvetica;font-size:11px;font-weight:normal;stroke:none;white-space:pre"><g transform="translate(301.18,364.30)rotate(0)"><text x="30.0" y="2.81" style="">Ndyuka</text><g transform="translate(0,-10)"><ns0:circle cx="10.0" cy="10.0" r="9.0" style="stroke:black; fill:#222222;" />
</g></g><g transform="translate(301.18,336.79)rotate(0)"><text x="30.0" y="2.81" style="">English</text><g transform="translate(0,-10)"><ns0:circle cx="10.0" cy="10.0" r="9.0" style="stroke:black; fill:#222222;" />
</g></g><g transform="translate(301.18,309.28)rotate(0)"><text x="30.0" y="2.81" style="">German (Timisoara)</text><g transform="translate(0,-10)"><ns0:circle cx="10.0" cy="10.0" r="9.0" style="stroke:black; fill:#222222;" />
</g></g><g transform="translate(301.18,281.77)rotate(0)"><text x="30.0" y="2.81" style="">Spanish (Canary Islands)</text><g transform="translate(0,-10)"><ns0:circle cx="10.0" cy="10.0" r="9.0" style="stroke:black; fill:#222222;" />
</g></g><g transform="translate(301.18,254.26)rotate(0)"><text x="30.0" y="2.81" style="">French</text><g transform="translate(0,-10)"><ns0:circle cx="10.0" cy="10.0" r="9.0" style="stroke:black; fill:#F2F3F4;" />
</g></g><g transform="translate(301.18,226.75)rotate(0)"><text x="30.0" y="2.81" style="">Persian</text><g transform="translate(0,-10)"><ns0:circle cx="10.0" cy="10.0" r="9.0" style="stroke:black; fill:#222222;" />
</g></g><g transform="translate(301.18,199.25)rotate(0)"><text x="30.0" y="2.81" style="">Hindi</text><g transform="translate(0,-10)"><ns0:circle cx="10.0" cy="10.0" r="9.0" style="stroke:black; fill:#F2F3F4;" />
</g></g><g transform="translate(301.18,171.74)rotate(0)"><text x="30.0" y="2.81" style="">Russian</text><g transform="translate(0,-10)"><ns0:circle cx="10.0" cy="10.0" r="9.0" style="stroke:black; fill:#222222;" />
</g></g><g transform="translate(301.18,144.23)rotate(0)"><text x="30.0" y="2.81" style="">Latvian</text><g transform="translate(0,-10)"><ns0:circle cx="10.0" cy="10.0" r="9.0" style="stroke:black; fill:#222222;" />
</g></g><g transform="translate(301.18,116.72)rotate(0)"><text x="30.0" y="2.81" style="">Greek (Modern)</text><g transform="translate(0,-10)"><ns0:circle cx="10.0" cy="10.0" r="9.0" style="stroke:black; fill:#222222;" />
</g></g><g transform="translate(301.18,89.21)rotate(0)"><text x="30.0" y="2.81" style="">Irish (Munster)</text><g transform="translate(0,-10)"><ns0:circle cx="10.0" cy="10.0" r="9.0" style="stroke:black; fill:#222222;" />
</g></g><g transform="translate(301.18,61.70)rotate(0)"><text x="30.0" y="2.81" style="">Armenian (Iranian)</text><g transform="translate(0,-10)"><ns0:circle cx="10.0" cy="10.0" r="9.0" style="stroke:black; fill:#222222;" />
</g></g></g></g></g><g class="toyplot-coordinates-Axis" id="t800f5890ebdc4e55b0bd1c3f3c18d752" transform="translate(50.0,376.0)translate(0,20.0)"><line x1="1.2496446323076609" y1="0" x2="251.1785710938452" y2="0" style="" /><g><line x1="251.1785710938452" y1="0" x2="251.1785710938452" y2="-5" style="" /><line x1="188.69633947846077" y1="0" x2="188.69633947846077" y2="-5" style="" /><line x1="126.2141078630764" y1="0" x2="126.2141078630764" y2="-5" style="" /><line x1="63.73187624769203" y1="0" x2="63.73187624769203" y2="-5" style="" /><line x1="1.2496446323076609" y1="0" x2="1.2496446323076609" y2="-5" style="" /></g><g><g transform="translate(251.1785710938452,6)"><text x="-2.78" y="8.555" style="fill:rgb(16.1%,15.3%,14.1%);fill-opacity:1.0;font-family:helvetica;font-size:10.0px;font-weight:normal;stroke:none;vertical-align:baseline;white-space:pre">0</text></g><g transform="translate(188.69633947846077,6)"><text x="-2.78" y="8.555" style="fill:rgb(16.1%,15.3%,14.1%);fill-opacity:1.0;font-family:helvetica;font-size:10.0px;font-weight:normal;stroke:none;vertical-align:baseline;white-space:pre">4</text></g><g transform="translate(126.2141078630764,6)"><text x="-2.78" y="8.555" style="fill:rgb(16.1%,15.3%,14.1%);fill-opacity:1.0;font-family:helvetica;font-size:10.0px;font-weight:normal;stroke:none;vertical-align:baseline;white-space:pre">8</text></g><g transform="translate(63.73187624769203,6)"><text x="-5.56" y="8.555" style="fill:rgb(16.1%,15.3%,14.1%);fill-opacity:1.0;font-family:helvetica;font-size:10.0px;font-weight:normal;stroke:none;vertical-align:baseline;white-space:pre">12</text></g><g transform="translate(1.2496446323076609,6)"><text x="-5.56" y="8.555" style="fill:rgb(16.1%,15.3%,14.1%);fill-opacity:1.0;font-family:helvetica;font-size:10.0px;font-weight:normal;stroke:none;vertical-align:baseline;white-space:pre">16</text></g></g><g class="toyplot-coordinates-Axis-coordinates" style="visibility:hidden" transform=""><line x1="0" x2="0" y1="-3.0" y2="4.5" style="stroke:rgb(43.9%,50.2%,56.5%);stroke-opacity:1.0;stroke-width:1.0" /><text x="0" y="-6" style="alignment-baseline:alphabetic;fill:rgb(43.9%,50.2%,56.5%);fill-opacity:1.0;font-size:10px;font-weight:normal;stroke:none;text-anchor:middle" /></g></g><g transform="translate(250.0,42.0)"><text x="-265.671" y="-4.823" style="fill:rgb(16.1%,15.3%,14.1%);fill-opacity:1.0;font-family:helvetica;font-size:14.0px;font-weight:bold;stroke:none;vertical-align:baseline;white-space:pre">indo1319 - Glottolog classification of the languages in the family Indo-European</text></g></g><g transform="translate(480.0,45)" style="font-size: 12px"><rect x="0" y="0" width="200" height="80" rx="5" fill="white" /><g transform="translate(10,5)"><ns0:circle cx="10.0" cy="10.0" r="9.0" style="stroke:black; fill:#000000;" />
<text x="30" y="15" stroke-width="0" font-weight="bold">Vowel Nasalization</text></g><g transform="translate(10,30)"><ns0:circle cx="10.0" cy="10.0" r="9.0" style="stroke:black; fill:#F2F3F4;" />
<text x="30" y="15" stroke-width="0">Contrast present</text></g><g transform="translate(10,55)"><ns0:circle cx="10.0" cy="10.0" r="9.0" style="stroke:black; fill:#222222;" />
<text x="30" y="15" stroke-width="0">Contrast absent</text></g></g></svg>