<?xml version='1.0' encoding='utf8'?>
<svg class="toyplot-canvas-Canvas" xmlns:toyplot="http://www.sandia.gov/toyplot" xmlns:xlink="http://www.w3.org/1999/xlink" xmlns="http://www.w3.org/2000/svg" width="600.0px" height="435.0px" viewBox="0 0 600.0 435.0" preserveAspectRatio="xMidYMid meet" style="background-color:transparent;border-color:#292724;border-style:none;border-width:1.0;fill:rgb(16.1%,15.3%,14.1%);fill-opacity:1.0;font-family:Helvetica;font-size:12px;opacity:1.0;stroke:rgb(16.1%,15.3%,14.1%);stroke-opacity:1.0;stroke-width:1.0" id="t134f7e297e7e4d928e6dc59e7225c76f"><g class="toyplot-coordinates-Cartesian" id="tff9aae28aa5f4903a98f4ff7b7eaec29"><clipPath id="t329d318514944769b3fb59513d4d485e"><rect x="30.0" y="30.0" width="540.0" height="375.0" /></clipPath><g clip-path="url(#t329d318514944769b3fb59513d4d485e)"><g class="toytree-mark-Toytree" id="t01722cc70bd54d9f8cf1e3e6dc514c64"><g class="toytree-Edges" style="fill:none;stroke:rgb(14.9%,14.9%,14.9%);stroke-linecap:round;stroke-opacity:1;stroke-width:2"><path d="M 51.3 116.9 L 51.3 116.5 L 117.7 116.5" id="26,25" /><path d="M 51.3 116.9 L 51.3 210.2 L 117.7 210.2" id="26,24" /><path d="M 117.7 116.5 L 117.7 139.6 L 184.1 139.6" id="25,23" /><path d="M 117.7 210.2 L 117.7 200.2 L 184.1 200.2" id="24,22" /><path d="M 117.7 210.2 L 117.7 264.8 L 184.1 264.8" id="24,21" /><path d="M 184.1 264.8 L 184.1 307.5 L 250.5 307.5" id="21,20" /><path d="M 250.5 307.5 L 250.5 356.0 L 316.9 356.0" id="20,19" /><path d="M 51.3 116.9 L 51.3 61.7 L 117.7 61.7" id="26,18" /><path d="M 51.3 116.9 L 51.3 79.0 L 117.7 79.0" id="26,17" /><path d="M 117.7 116.5 L 117.7 96.3 L 184.1 96.3" id="25,16" /><path d="M 117.7 116.5 L 117.7 113.6 L 184.1 113.6" id="25,15" /><path d="M 184.1 139.6 L 184.1 131.0 L 250.5 131.0" id="23,14" /><path d="M 184.1 139.6 L 184.1 148.3 L 250.5 148.3" id="23,13" /><path d="M 117.7 210.2 L 117.7 165.6 L 184.1 165.6" id="24,12" /><path d="M 184.1 200.2 L 184.1 182.9 L 250.5 182.9" id="22,11" /><path d="M 184.1 200.2 L 184.1 200.2 L 250.5 200.2" id="22,10" /><path d="M 184.1 200.2 L 184.1 217.5 L 250.5 217.5" id="22,9" /><path d="M 184.1 264.8 L 184.1 234.8 L 250.5 234.8" id="21,8" /><path d="M 184.1 264.8 L 184.1 252.1 L 250.5 252.1" id="21,7" /><path d="M 250.5 307.5 L 250.5 269.4 L 316.9 269.4" id="20,6" /><path d="M 250.5 307.5 L 250.5 286.7 L 316.9 286.7" id="20,5" /><path d="M 250.5 307.5 L 250.5 304.0 L 316.9 304.0" id="20,4" /><path d="M 250.5 307.5 L 250.5 321.4 L 316.9 321.4" id="20,3" /><path d="M 316.9 356.0 L 316.9 338.7 L 383.3 338.7" id="19,2" /><path d="M 316.9 356.0 L 316.9 356.0 L 383.3 356.0" id="19,1" /><path d="M 316.9 356.0 L 316.9 373.3 L 383.3 373.3" id="19,0" /></g><g class="toytree-AlignEdges" style="stroke:rgb(66.3%,66.3%,66.3%);stroke-dasharray:2, 4;stroke-linecap:round;stroke-opacity:1.0;stroke-width:2"><path d="M 383.3 373.3 L 383.3 373.3" /><path d="M 383.3 356.0 L 383.3 356.0" /><path d="M 383.3 338.7 L 383.3 338.7" /><path d="M 383.3 321.4 L 316.9 321.4" /><path d="M 383.3 304.0 L 316.9 304.0" /><path d="M 383.3 286.7 L 316.9 286.7" /><path d="M 383.3 269.4 L 316.9 269.4" /><path d="M 383.3 252.1 L 250.5 252.1" /><path d="M 383.3 234.8 L 250.5 234.8" /><path d="M 383.3 217.5 L 250.5 217.5" /><path d="M 383.3 200.2 L 250.5 200.2" /><path d="M 383.3 182.9 L 250.5 182.9" /><path d="M 383.3 165.6 L 184.1 165.6" /><path d="M 383.3 148.3 L 250.5 148.3" /><path d="M 383.3 131.0 L 250.5 131.0" /><path d="M 383.3 113.6 L 184.1 113.6" /><path d="M 383.3 96.3 L 184.1 96.3" /><path d="M 383.3 79.0 L 117.7 79.0" /><path d="M 383.3 61.7 L 117.7 61.7" /></g><g class="toytree-TipLabels" style="fill:rgb(14.9%,14.9%,14.9%);fill-opacity:1.0;font-family:helvetica;font-size:11px;font-weight:normal;stroke:none;white-space:pre"><g transform="translate(383.33,373.28)rotate(0)"><text x="15.00" y="2.81" style="">gofa1235</text></g><g transform="translate(383.33,355.97)rotate(0)"><text x="15.00" y="2.81" style="">gamo1243</text></g><g transform="translate(383.33,338.66)rotate(0)"><text x="15.00" y="2.81" style="">dawr1236</text></g><g transform="translate(383.33,321.35)rotate(0)"><text x="15.00" y="2.81" style="">wola1242</text></g><g transform="translate(383.33,304.05)rotate(0)"><text x="15.00" y="2.81" style="">oyda1235</text></g><g transform="translate(383.33,286.74)rotate(0)"><text x="15.00" y="2.81" style="">melo1242</text></g><g transform="translate(383.33,269.43)rotate(0)"><text x="15.00" y="2.81" style="">dorz1235</text></g><g transform="translate(383.33,252.12)rotate(0)"><text x="15.00" y="2.81" style="">male1284</text></g><g transform="translate(383.33,234.81)rotate(0)"><text x="15.00" y="2.81" style="">bask1236</text></g><g transform="translate(383.33,217.50)rotate(0)"><text x="15.00" y="2.81" style="">zays1235</text></g><g transform="translate(383.33,200.19)rotate(0)"><text x="15.00" y="2.81" style="">koor1239</text></g><g transform="translate(383.33,182.88)rotate(0)"><text x="15.00" y="2.81" style="">kach1284</text></g><g transform="translate(383.33,165.57)rotate(0)"><text x="15.00" y="2.81" style="">char1269</text></g><g transform="translate(383.33,148.26)rotate(0)"><text x="15.00" y="2.81" style="">shek1244</text></g><g transform="translate(383.33,130.95)rotate(0)"><text x="15.00" y="2.81" style="">kafa1242</text></g><g transform="translate(383.33,113.65)rotate(0)"><text x="15.00" y="2.81" style="">boro1277</text></g><g transform="translate(383.33,96.34)rotate(0)"><text x="15.00" y="2.81" style="">anfi1235</text></g><g transform="translate(383.33,79.03)rotate(0)"><text x="15.00" y="2.81" style="">yems1235</text></g><g transform="translate(383.33,61.72)rotate(0)"><text x="15.00" y="2.81" style="">benc1235</text></g></g></g></g><g class="toyplot-coordinates-Axis" id="te5ed751953554956ad692dd028500483" transform="translate(50.0,385.0)translate(0,20.0)"><line x1="1.3279983214100937" y1="0" x2="333.32757867394054" y2="0" style="" /><g><line x1="333.32757867394054" y1="0" x2="333.32757867394054" y2="-5" style="" /><line x1="266.92766260343444" y1="0" x2="266.92766260343444" y2="-5" style="" /><line x1="200.52774653292835" y1="0" x2="200.52774653292835" y2="-5" style="" /><line x1="134.12783046242228" y1="0" x2="134.12783046242228" y2="-5" style="" /><line x1="67.72791439191619" y1="0" x2="67.72791439191619" y2="-5" style="" /><line x1="1.3279983214100937" y1="0" x2="1.3279983214100937" y2="-5" style="" /></g><g><g transform="translate(333.32757867394054,6)"><text x="-2.78" y="8.555" style="fill:rgb(16.1%,15.3%,14.1%);fill-opacity:1.0;font-family:helvetica;font-size:10.0px;font-weight:normal;stroke:none;vertical-align:baseline;white-space:pre">0</text></g><g transform="translate(266.92766260343444,6)"><text x="-2.78" y="8.555" style="fill:rgb(16.1%,15.3%,14.1%);fill-opacity:1.0;font-family:helvetica;font-size:10.0px;font-weight:normal;stroke:none;vertical-align:baseline;white-space:pre">1</text></g><g transform="translate(200.52774653292835,6)"><text x="-2.78" y="8.555" style="fill:rgb(16.1%,15.3%,14.1%);fill-opacity:1.0;font-family:helvetica;font-size:10.0px;font-weight:normal;stroke:none;vertical-align:baseline;white-space:pre">2</text></g><g transform="translate(134.12783046242228,6)"><text x="-2.78" y="8.555" style="fill:rgb(16.1%,15.3%,14.1%);fill-opacity:1.0;font-family:helvetica;font-size:10.0px;font-weight:normal;stroke:none;vertical-align:baseline;white-space:pre">3</text></g><g transform="translate(67.72791439191619,6)"><text x="-2.78" y="8.555" style="fill:rgb(16.1%,15.3%,14.1%);fill-opacity:1.0;font-family:helvetica;font-size:10.0px;font-weight:normal;stroke:none;vertical-align:baseline;white-space:pre">4</text></g><g transform="translate(1.3279983214100937,6)"><text x="-2.78" y="8.555" style="fill:rgb(16.1%,15.3%,14.1%);fill-opacity:1.0;font-family:helvetica;font-size:10.0px;font-weight:normal;stroke:none;vertical-align:baseline;white-space:pre">5</text></g></g><g class="toyplot-coordinates-Axis-coordinates" style="visibility:hidden" transform=""><line x1="0" x2="0" y1="-3.0" y2="4.5" style="stroke:rgb(43.9%,50.2%,56.5%);stroke-opacity:1.0;stroke-width:1.0" /><text x="0" y="-6" style="alignment-baseline:alphabetic;fill:rgb(43.9%,50.2%,56.5%);fill-opacity:1.0;font-size:10px;font-weight:normal;stroke:none;text-anchor:middle" /></g></g><g transform="translate(300.0,42.0)"><text x="-264.502" y="-4.823" style="fill:rgb(16.1%,15.3%,14.1%);fill-opacity:1.0;font-family:helvetica;font-size:14.0px;font-weight:bold;stroke:none;vertical-align:baseline;white-space:pre">gong1255 - Glottolog classification of the languages in the family Ta-Ne-Omotic</text></g></g></svg>