<?xml version='1.0' encoding='utf8'?>
<svg class="toyplot-canvas-Canvas" xmlns:toyplot="http://www.sandia.gov/toyplot" xmlns:xlink="http://www.w3.org/1999/xlink" xmlns="http://www.w3.org/2000/svg" width="800.0px" height="435.0px" viewBox="0 0 800.0 435.0" preserveAspectRatio="xMidYMid meet" style="background-color:transparent;border-color:#292724;border-style:none;border-width:1.0;fill:rgb(16.1%,15.3%,14.1%);fill-opacity:1.0;font-family:Helvetica;font-size:12px;opacity:1.0;stroke:rgb(16.1%,15.3%,14.1%);stroke-opacity:1.0;stroke-width:1.0" id="t0c15df6f4bfe4d0e8f39e747c880837e"><g class="toyplot-coordinates-Cartesian" id="t40ced80ad8a84fb1a556936c7adf3878"><clipPath id="tf38aa8856a2949f8b5c5d7b73f3cf429"><rect x="30.0" y="30.0" width="740.0" height="375.0" /></clipPath><g clip-path="url(#tf38aa8856a2949f8b5c5d7b73f3cf429)"><g class="toytree-mark-Toytree" id="t7379fe1112854fa5a21be64eb9e060d8"><g class="toytree-Edges" style="fill:none;stroke:rgb(14.9%,14.9%,14.9%);stroke-linecap:round;stroke-opacity:1;stroke-width:2"><path d="M 50.0 116.9 L 50.0 116.5 L 157.4 116.5" id="26,25" /><path d="M 50.0 116.9 L 50.0 210.2 L 157.4 210.2" id="26,24" /><path d="M 157.4 116.5 L 157.4 139.6 L 264.8 139.6" id="25,23" /><path d="M 157.4 210.2 L 157.4 200.2 L 264.8 200.2" id="24,22" /><path d="M 157.4 210.2 L 157.4 264.8 L 264.8 264.8" id="24,21" /><path d="M 264.8 264.8 L 264.8 307.5 L 372.2 307.5" id="21,20" /><path d="M 372.2 307.5 L 372.2 356.0 L 479.6 356.0" id="20,19" /><path d="M 50.0 116.9 L 50.0 61.7 L 157.4 61.7" id="26,18" /><path d="M 50.0 116.9 L 50.0 79.0 L 157.4 79.0" id="26,17" /><path d="M 157.4 116.5 L 157.4 96.3 L 264.8 96.3" id="25,16" /><path d="M 157.4 116.5 L 157.4 113.6 L 264.8 113.6" id="25,15" /><path d="M 264.8 139.6 L 264.8 131.0 L 372.2 131.0" id="23,14" /><path d="M 264.8 139.6 L 264.8 148.3 L 372.2 148.3" id="23,13" /><path d="M 157.4 210.2 L 157.4 165.6 L 264.8 165.6" id="24,12" /><path d="M 264.8 200.2 L 264.8 182.9 L 372.2 182.9" id="22,11" /><path d="M 264.8 200.2 L 264.8 200.2 L 372.2 200.2" id="22,10" /><path d="M 264.8 200.2 L 264.8 217.5 L 372.2 217.5" id="22,9" /><path d="M 264.8 264.8 L 264.8 234.8 L 372.2 234.8" id="21,8" /><path d="M 264.8 264.8 L 264.8 252.1 L 372.2 252.1" id="21,7" /><path d="M 372.2 307.5 L 372.2 269.4 L 479.6 269.4" id="20,6" /><path d="M 372.2 307.5 L 372.2 286.7 L 479.6 286.7" id="20,5" /><path d="M 372.2 307.5 L 372.2 304.0 L 479.6 304.0" id="20,4" /><path d="M 372.2 307.5 L 372.2 321.4 L 479.6 321.4" id="20,3" /><path d="M 479.6 356.0 L 479.6 338.7 L 587.0 338.7" id="19,2" /><path d="M 479.6 356.0 L 479.6 356.0 L 587.0 356.0" id="19,1" /><path d="M 479.6 356.0 L 479.6 373.3 L 587.0 373.3" id="19,0" /></g><g class="toytree-AlignEdges" style="stroke:rgb(66.3%,66.3%,66.3%);stroke-dasharray:2, 4;stroke-linecap:round;stroke-opacity:1.0;stroke-width:2"><path d="M 587.0 373.3 L 587.0 373.3" /><path d="M 587.0 356.0 L 587.0 356.0" /><path d="M 587.0 338.7 L 587.0 338.7" /><path d="M 587.0 321.4 L 479.6 321.4" /><path d="M 587.0 304.0 L 479.6 304.0" /><path d="M 587.0 286.7 L 479.6 286.7" /><path d="M 587.0 269.4 L 479.6 269.4" /><path d="M 587.0 252.1 L 372.2 252.1" /><path d="M 587.0 234.8 L 372.2 234.8" /><path d="M 587.0 217.5 L 372.2 217.5" /><path d="M 587.0 200.2 L 372.2 200.2" /><path d="M 587.0 182.9 L 372.2 182.9" /><path d="M 587.0 165.6 L 264.8 165.6" /><path d="M 587.0 148.3 L 372.2 148.3" /><path d="M 587.0 131.0 L 372.2 131.0" /><path d="M 587.0 113.6 L 264.8 113.6" /><path d="M 587.0 96.3 L 264.8 96.3" /><path d="M 587.0 79.0 L 157.4 79.0" /><path d="M 587.0 61.7 L 157.4 61.7" /></g><g class="toytree-Nodes" style="fill:rgb(82.7%,82.7%,82.7%);fill-opacity:1.0;stroke:rgb(0%,0%,0%);stroke-opacity:1.0;stroke-width:0.75"><g id="node-0" transform="translate(587.012,373.282)"><rect x="0.0" y="0.0" width="0.0" height="0.0" /></g><g id="node-1" transform="translate(587.012,355.972)"><rect x="0.0" y="0.0" width="0.0" height="0.0" /></g><g id="node-2" transform="translate(587.012,338.663)"><rect x="0.0" y="0.0" width="0.0" height="0.0" /></g><g id="node-3" transform="translate(479.609,321.354)"><rect x="0.0" y="0.0" width="0.0" height="0.0" /></g><g id="node-4" transform="translate(479.609,304.045)"><rect x="0.0" y="0.0" width="0.0" height="0.0" /></g><g id="node-5" transform="translate(479.609,286.736)"><rect x="0.0" y="0.0" width="0.0" height="0.0" /></g><g id="node-6" transform="translate(479.609,269.427)"><rect x="0.0" y="0.0" width="0.0" height="0.0" /></g><g id="node-7" transform="translate(372.207,252.118)"><rect x="0.0" y="0.0" width="0.0" height="0.0" /></g><g id="node-8" transform="translate(372.207,234.809)"><rect x="0.0" y="0.0" width="0.0" height="0.0" /></g><g id="node-9" transform="translate(372.207,217.500)"><rect x="0.0" y="0.0" width="0.0" height="0.0" /></g><g id="node-10" transform="translate(372.207,200.191)"><rect x="0.0" y="0.0" width="0.0" height="0.0" /></g><g id="node-11" transform="translate(372.207,182.882)"><rect x="0.0" y="0.0" width="0.0" height="0.0" /></g><g id="node-12" transform="translate(264.805,165.573)"><rect x="0.0" y="0.0" width="0.0" height="0.0" /></g><g id="node-13" transform="translate(372.207,148.264)"><rect x="0.0" y="0.0" width="0.0" height="0.0" /></g><g id="node-14" transform="translate(372.207,130.955)"><rect x="0.0" y="0.0" width="0.0" height="0.0" /></g><g id="node-15" transform="translate(264.805,113.646)"><rect x="0.0" y="0.0" width="0.0" height="0.0" /></g><g id="node-16" transform="translate(264.805,96.337)"><rect x="0.0" y="0.0" width="0.0" height="0.0" /></g><g id="node-17" transform="translate(157.402,79.028)"><rect x="0.0" y="0.0" width="0.0" height="0.0" /></g><g id="node-18" transform="translate(157.402,61.718)"><rect x="0.0" y="0.0" width="0.0" height="0.0" /></g><g id="node-19" transform="translate(479.609,355.972)"><rect x="-60.0" y="-7.5" width="120.0" height="15.0" /></g><g id="node-20" transform="translate(372.207,307.507)"><rect x="-60.0" y="-7.5" width="120.0" height="15.0" /></g><g id="node-21" transform="translate(264.805,264.811)"><rect x="-60.0" y="-7.5" width="120.0" height="15.0" /></g><g id="node-22" transform="translate(264.805,200.191)"><rect x="-60.0" y="-7.5" width="120.0" height="15.0" /></g><g id="node-23" transform="translate(264.805,139.609)"><rect x="-60.0" y="-7.5" width="120.0" height="15.0" /></g><g id="node-24" transform="translate(157.402,210.192)"><rect x="-60.0" y="-7.5" width="120.0" height="15.0" /></g><g id="node-25" transform="translate(157.402,116.531)"><rect x="-60.0" y="-7.5" width="120.0" height="15.0" /></g><g id="node-26" transform="translate(50.000,116.867)"><rect x="0.0" y="0.0" width="0.0" height="0.0" /></g></g><g class="toytree-NodeLabels" style="fill:rgb(14.9%,14.9%,14.9%);fill-opacity:1.0;font-size:10px;stroke:none"><g transform="translate(437.38,358.53)"><title>idx: 19
dist: 1.0000
support: 0.0000
height: 1.0000
name: Dawro-Gofa-Gamo</title><text>Dawro-Gofa-Gamo</text></g><g transform="translate(338.31,310.06)"><title>idx: 20
dist: 1.0000
support: 0.0000
height: 2.0000
name: Central_Ometo</title><text>Central_Ometo</text></g><g transform="translate(221.74,267.37)"><title>idx: 21
dist: 1.0000
support: 0.0000
height: 3.0000
name: North-West_Ometo</title><text>North-West_Ometo</text></g><g transform="translate(237.01,202.75)"><title>idx: 22
dist: 1.0000
support: 0.0000
height: 3.0000
name: East_Ometo</title><text>East_Ometo</text></g><g transform="translate(233.95,142.16)"><title>idx: 23
dist: 1.0000
support: 0.0000
height: 3.0000
name: South_Gonga</title><text>South_Gonga</text></g><g transform="translate(142.40,212.75)"><title>idx: 24
dist: 1.0000
support: 0.0000
height: 4.0000
name: Ometo</title><text>Ometo</text></g><g transform="translate(143.23,119.09)"><title>idx: 25
dist: 1.0000
support: 0.0000
height: 4.0000
name: Kefoid</title><text>Kefoid</text></g></g><g class="toytree-TipLabels" style="fill:rgb(14.9%,14.9%,14.9%);fill-opacity:1.0;font-family:helvetica;font-size:11px;font-weight:normal;stroke:none;white-space:pre"><g transform="translate(587.01,373.28)rotate(0)"><text x="15.00" y="2.81" style="">Gofa</text></g><g transform="translate(587.01,355.97)rotate(0)"><text x="15.00" y="2.81" style="">Gamo</text></g><g transform="translate(587.01,338.66)rotate(0)"><text x="15.00" y="2.81" style="">Dawro</text></g><g transform="translate(587.01,321.35)rotate(0)"><text x="15.00" y="2.81" style="">Wolaytta</text></g><g transform="translate(587.01,304.05)rotate(0)"><text x="15.00" y="2.81" style="">Oyda</text></g><g transform="translate(587.01,286.74)rotate(0)"><text x="15.00" y="2.81" style="">Melo</text></g><g transform="translate(587.01,269.43)rotate(0)"><text x="15.00" y="2.81" style="">Dorze</text></g><g transform="translate(587.01,252.12)rotate(0)"><text x="15.00" y="2.81" style="">Male__Ethiopia_</text></g><g transform="translate(587.01,234.81)rotate(0)"><text x="15.00" y="2.81" style="">Basketo</text></g><g transform="translate(587.01,217.50)rotate(0)"><text x="15.00" y="2.81" style="">Zayse-Zergulla</text></g><g transform="translate(587.01,200.19)rotate(0)"><text x="15.00" y="2.81" style="">Koorete</text></g><g transform="translate(587.01,182.88)rotate(0)"><text x="15.00" y="2.81" style="">Kachama-Ganjule-Haro</text></g><g transform="translate(587.01,165.57)rotate(0)"><text x="15.00" y="2.81" style="">Chara</text></g><g transform="translate(587.01,148.26)rotate(0)"><text x="15.00" y="2.81" style="">Shekkacho</text></g><g transform="translate(587.01,130.95)rotate(0)"><text x="15.00" y="2.81" style="">Kafa</text></g><g transform="translate(587.01,113.65)rotate(0)"><text x="15.00" y="2.81" style="">Boro__Ethiopia_</text></g><g transform="translate(587.01,96.34)rotate(0)"><text x="15.00" y="2.81" style="">Anfillo</text></g><g transform="translate(587.01,79.03)rotate(0)"><text x="15.00" y="2.81" style="">Yemsa</text></g><g transform="translate(587.01,61.72)rotate(0)"><text x="15.00" y="2.81" style="">Bench</text></g></g></g></g><g class="toyplot-coordinates-Axis" id="tf74d71ad4c9f49b2ae6b6c63e258ff6d" transform="translate(50.0,385.0)translate(0,20.0)"><line x1="0" y1="0" x2="537.0116071223083" y2="0" style="" /><g><line x1="537.0116071223083" y1="0" x2="537.0116071223083" y2="-5" style="" /><line x1="460.2956632476928" y1="0" x2="460.2956632476928" y2="-5" style="" /><line x1="383.5797193730773" y1="0" x2="383.5797193730773" y2="-5" style="" /><line x1="306.86377549846185" y1="0" x2="306.86377549846185" y2="-5" style="" /><line x1="230.1478316238464" y1="0" x2="230.1478316238464" y2="-5" style="" /><line x1="153.4318877492309" y1="0" x2="153.4318877492309" y2="-5" style="" /><line x1="76.71594387461548" y1="0" x2="76.71594387461548" y2="-5" style="" /><line x1="0.0" y1="0" x2="0.0" y2="-5" style="" /></g><g><g transform="translate(537.0116071223083,6)"><text x="-6.95" y="8.555" style="fill:rgb(16.1%,15.3%,14.1%);fill-opacity:1.0;font-family:helvetica;font-size:10.0px;font-weight:normal;stroke:none;vertical-align:baseline;white-space:pre">0.0</text></g><g transform="translate(460.2956632476928,6)"><text x="-6.95" y="8.555" style="fill:rgb(16.1%,15.3%,14.1%);fill-opacity:1.0;font-family:helvetica;font-size:10.0px;font-weight:normal;stroke:none;vertical-align:baseline;white-space:pre">0.7</text></g><g transform="translate(383.5797193730773,6)"><text x="-6.95" y="8.555" style="fill:rgb(16.1%,15.3%,14.1%);fill-opacity:1.0;font-family:helvetica;font-size:10.0px;font-weight:normal;stroke:none;vertical-align:baseline;white-space:pre">1.4</text></g><g transform="translate(306.86377549846185,6)"><text x="-6.95" y="8.555" style="fill:rgb(16.1%,15.3%,14.1%);fill-opacity:1.0;font-family:helvetica;font-size:10.0px;font-weight:normal;stroke:none;vertical-align:baseline;white-space:pre">2.1</text></g><g transform="translate(230.1478316238464,6)"><text x="-6.95" y="8.555" style="fill:rgb(16.1%,15.3%,14.1%);fill-opacity:1.0;font-family:helvetica;font-size:10.0px;font-weight:normal;stroke:none;vertical-align:baseline;white-space:pre">2.9</text></g><g transform="translate(153.4318877492309,6)"><text x="-6.95" y="8.555" style="fill:rgb(16.1%,15.3%,14.1%);fill-opacity:1.0;font-family:helvetica;font-size:10.0px;font-weight:normal;stroke:none;vertical-align:baseline;white-space:pre">3.6</text></g><g transform="translate(76.71594387461548,6)"><text x="-6.95" y="8.555" style="fill:rgb(16.1%,15.3%,14.1%);fill-opacity:1.0;font-family:helvetica;font-size:10.0px;font-weight:normal;stroke:none;vertical-align:baseline;white-space:pre">4.3</text></g><g transform="translate(0.0,6)"><text x="-6.95" y="8.555" style="fill:rgb(16.1%,15.3%,14.1%);fill-opacity:1.0;font-family:helvetica;font-size:10.0px;font-weight:normal;stroke:none;vertical-align:baseline;white-space:pre">5.0</text></g></g><g class="toyplot-coordinates-Axis-coordinates" style="visibility:hidden" transform=""><line x1="0" x2="0" y1="-3.0" y2="4.5" style="stroke:rgb(43.9%,50.2%,56.5%);stroke-opacity:1.0;stroke-width:1.0" /><text x="0" y="-6" style="alignment-baseline:alphabetic;fill:rgb(43.9%,50.2%,56.5%);fill-opacity:1.0;font-size:10px;font-weight:normal;stroke:none;text-anchor:middle" /></g></g><g transform="translate(400.0,42.0)"><text x="-264.502" y="-4.823" style="fill:rgb(16.1%,15.3%,14.1%);fill-opacity:1.0;font-family:helvetica;font-size:14.0px;font-weight:bold;stroke:none;vertical-align:baseline;white-space:pre">gong1255 - Glottolog classification of the languages in the family Ta-Ne-Omotic</text></g></g></svg>