<?xml version='1.0' encoding='utf8'?>
<svg class="toyplot-canvas-Canvas" xmlns:toyplot="http://www.sandia.gov/toyplot" xmlns:xlink="http://www.w3.org/1999/xlink" xmlns="http://www.w3.org/2000/svg" width="500.0px" height="210.0px" viewBox="0 0 500.0 210.0" preserveAspectRatio="xMidYMid meet" style="background-color:transparent;border-color:#292724;border-style:none;border-width:1.0;fill:rgb(16.1%,15.3%,14.1%);fill-opacity:1.0;font-family:Helvetica;font-size:12px;opacity:1.0;stroke:rgb(16.1%,15.3%,14.1%);stroke-opacity:1.0;stroke-width:1.0" id="t665f4997aafb46609f3201e7a632ab69"><g class="toyplot-coordinates-Cartesian" id="t49ca92df5a7c4d37ae460087d34f6852"><clipPath id="t89dad8f99fa842c7949c39c36a68ec46"><rect x="30.0" y="30.0" width="440.0" height="150.0" /></clipPath><g clip-path="url(#t89dad8f99fa842c7949c39c36a68ec46)"><g class="toytree-mark-Toytree" id="t985eaf88fd89484eaec4c701ed906a87"><g class="toytree-Edges" style="fill:none;stroke:rgb(14.9%,14.9%,14.9%);stroke-linecap:round;stroke-opacity:1;stroke-width:2"><path d="M 51.4 95.1 L 51.4 134.8 L 207.6 134.8" id="5,4" /><path d="M 51.4 95.1 L 51.4 60.3 L 82.7 60.3" id="5,3" /><path d="M 51.4 95.1 L 51.4 90.1 L 113.9 90.1" id="5,2" /><path d="M 207.6 134.8 L 207.6 119.9 L 301.4 119.9" id="4,1" /><path d="M 207.6 134.8 L 207.6 149.7 L 332.6 149.7" id="4,0" /></g><g class="toytree-AlignEdges" style="stroke:rgb(66.3%,66.3%,66.3%);stroke-dasharray:2, 4;stroke-linecap:round;stroke-opacity:1.0;stroke-width:2"><path d="M 332.6 149.7 L 332.6 149.7" /><path d="M 332.6 119.9 L 301.4 119.9" /><path d="M 332.6 90.1 L 113.9 90.1" /><path d="M 332.6 60.3 L 82.7 60.3" /></g><g class="toytree-TipLabels" style="fill:rgb(14.9%,14.9%,14.9%);fill-opacity:1.0;font-family:helvetica;font-size:11px;font-weight:normal;stroke:none;white-space:pre"><g transform="translate(332.63,149.75)rotate(0)"><text x="15.00" y="2.81" style="">D</text></g><g transform="translate(332.63,119.92)rotate(0)"><text x="15.00" y="2.81" style="">C</text></g><g transform="translate(332.63,90.08)rotate(0)"><text x="15.00" y="2.81" style="">B</text></g><g transform="translate(332.63,60.25)rotate(0)"><text x="15.00" y="2.81" style="">A</text></g></g></g></g></g></svg>