<?xml version="1.0" encoding="UTF-8" standalone="no"?>
<!DOCTYPE svg PUBLIC "-//W3C//DTD SVG 1.1//EN"
 "http://www.w3.org/Graphics/SVG/1.1/DTD/svg11.dtd">
<!-- Generated by graphviz version 2.40.1 (20161225.0304)
 -->
<!-- Title: compactRelationshipsDiagram Pages: 1 -->
<svg width="868pt" height="332pt"
 viewBox="0.00 0.00 868.00 332.20" xmlns="http://www.w3.org/2000/svg" xmlns:xlink="http://www.w3.org/1999/xlink">
<g id="graph0" class="graph" transform="scale(1 1) rotate(0) translate(4 328.2)">
<title>compactRelationshipsDiagram</title>
<polygon fill="#ffffff" stroke="transparent" points="-4,4 -4,-328.2 864,-328.2 864,4 -4,4"/>
<text text-anchor="middle" x="72.4936" y="-7.3" font-family="Helvetica,sans-Serif" font-size="11.00" fill="#000000">Generated by SchemaSpy</text>
<!-- CodeTable -->
<g id="node1" class="node">
<title>CodeTable</title>
<g id="a_node1"><a xlink:href="../../tables/CodeTable.html" xlink:title="CodeTable" target="_top">
<polygon fill="#ffffff" stroke="transparent" points="186,-83.2 186,-188.2 377,-188.2 377,-83.2 186,-83.2"/>
<polygon fill="#f5f5f5" stroke="transparent" points="186.5,-164.7 186.5,-187.7 377.5,-187.7 377.5,-164.7 186.5,-164.7"/>
<polygon fill="none" stroke="#000000" points="186.5,-164.7 186.5,-187.7 377.5,-187.7 377.5,-164.7 186.5,-164.7"/>
<text text-anchor="start" x="191.5" y="-173.8" font-family="Helvetica,sans-Serif" font-weight="bold" font-size="11.00" fill="#000000">CodeTable</text>
<text text-anchor="start" x="342.5437" y="-172.8" font-family="Helvetica,sans-Serif" font-size="11.00" fill="#000000">[table]</text>
<polygon fill="none" stroke="#000000" points="186.5,-142.7 186.5,-164.7 377.5,-164.7 377.5,-142.7 186.5,-142.7"/>
<image xlink:href="../../images/primaryKeys.png" width="11px" height="12px" preserveAspectRatio="xMinYMin meet" x="191.5" y="-159.7"/>
<text text-anchor="start" x="206.5" y="-149.8" font-family="Helvetica,sans-Serif" font-size="11.00" fill="#000000">cldf_id</text>
<polygon fill="none" stroke="#000000" points="186.5,-120.7 186.5,-142.7 377.5,-142.7 377.5,-120.7 186.5,-120.7"/>
<image xlink:href="../../images/foreignKeys.png" width="11px" height="12px" preserveAspectRatio="xMinYMin meet" x="191.5" y="-137.7"/>
<text text-anchor="start" x="206.5" y="-127.8" font-family="Helvetica,sans-Serif" font-size="11.00" fill="#000000">cldf_parameterReference</text>
<polygon fill="none" stroke="#000000" points="186.5,-101.7 186.5,-120.7 377.5,-120.7 377.5,-101.7 186.5,-101.7"/>
<text text-anchor="start" x="189.5" y="-107.8" font-family="Helvetica,sans-Serif" font-size="11.00" fill="#000000">...</text>
<polygon fill="#ffffff" stroke="transparent" points="186.5,-82.7 186.5,-101.7 262.5,-101.7 262.5,-82.7 186.5,-82.7"/>
<polygon fill="none" stroke="#000000" points="186.5,-82.7 186.5,-101.7 262.5,-101.7 262.5,-82.7 186.5,-82.7"/>
<text text-anchor="start" x="189.5" y="-88.8" font-family="Helvetica,sans-Serif" font-size="11.00" fill="#000000">&lt; 1</text>
<polygon fill="#ffffff" stroke="transparent" points="262.5,-82.7 262.5,-101.7 328.5,-101.7 328.5,-82.7 262.5,-82.7"/>
<polygon fill="none" stroke="#000000" points="262.5,-82.7 262.5,-101.7 328.5,-101.7 328.5,-82.7 262.5,-82.7"/>
<text text-anchor="start" x="293.1105" y="-88.8" font-family="Helvetica,sans-Serif" font-size="11.00" fill="#000000">2 rows</text>
<polygon fill="#ffffff" stroke="transparent" points="328.5,-82.7 328.5,-101.7 377.5,-101.7 377.5,-82.7 328.5,-82.7"/>
<polygon fill="none" stroke="#000000" points="328.5,-82.7 328.5,-101.7 377.5,-101.7 377.5,-82.7 328.5,-82.7"/>
<text text-anchor="start" x="358.9053" y="-88.8" font-family="Helvetica,sans-Serif" font-size="11.00" fill="#000000">1 &gt;</text>
</a>
</g>
</g>
<!-- ParameterTable -->
<g id="node3" class="node">
<title>ParameterTable</title>
<g id="a_node3"><a xlink:href="../../tables/ParameterTable.html" xlink:title="ParameterTable" target="_top">
<polygon fill="#ffffff" stroke="transparent" points="8,-123.2 8,-206.2 137,-206.2 137,-123.2 8,-123.2"/>
<polygon fill="#f5f5f5" stroke="transparent" points="8.5,-182.7 8.5,-205.7 137.5,-205.7 137.5,-182.7 8.5,-182.7"/>
<polygon fill="none" stroke="#000000" points="8.5,-182.7 8.5,-205.7 137.5,-205.7 137.5,-182.7 8.5,-182.7"/>
<text text-anchor="start" x="13.5" y="-191.8" font-family="Helvetica,sans-Serif" font-weight="bold" font-size="11.00" fill="#000000">ParameterTable</text>
<text text-anchor="start" x="102.5437" y="-190.8" font-family="Helvetica,sans-Serif" font-size="11.00" fill="#000000">[table]</text>
<polygon fill="none" stroke="#000000" points="8.5,-160.7 8.5,-182.7 137.5,-182.7 137.5,-160.7 8.5,-160.7"/>
<image xlink:href="../../images/primaryKeys.png" width="11px" height="12px" preserveAspectRatio="xMinYMin meet" x="13.5" y="-177.7"/>
<text text-anchor="start" x="28.5" y="-167.8" font-family="Helvetica,sans-Serif" font-size="11.00" fill="#000000">cldf_id</text>
<polygon fill="none" stroke="#000000" points="8.5,-141.7 8.5,-160.7 137.5,-160.7 137.5,-141.7 8.5,-141.7"/>
<text text-anchor="start" x="11.5" y="-147.8" font-family="Helvetica,sans-Serif" font-size="11.00" fill="#000000">...</text>
<polygon fill="#ffffff" stroke="transparent" points="8.5,-122.7 8.5,-141.7 52.5,-141.7 52.5,-122.7 8.5,-122.7"/>
<polygon fill="none" stroke="#000000" points="8.5,-122.7 8.5,-141.7 52.5,-141.7 52.5,-122.7 8.5,-122.7"/>
<text text-anchor="start" x="11.5" y="-128.8" font-family="Helvetica,sans-Serif" font-size="11.00" fill="#000000"> &#160;</text>
<polygon fill="#ffffff" stroke="transparent" points="52.5,-122.7 52.5,-141.7 100.5,-141.7 100.5,-122.7 52.5,-122.7"/>
<polygon fill="none" stroke="#000000" points="52.5,-122.7 52.5,-141.7 100.5,-141.7 100.5,-122.7 52.5,-122.7"/>
<text text-anchor="start" x="70.6105" y="-128.8" font-family="Helvetica,sans-Serif" font-size="11.00" fill="#000000">1 row</text>
<polygon fill="#ffffff" stroke="transparent" points="100.5,-122.7 100.5,-141.7 137.5,-141.7 137.5,-122.7 100.5,-122.7"/>
<polygon fill="none" stroke="#000000" points="100.5,-122.7 100.5,-141.7 137.5,-141.7 137.5,-122.7 100.5,-122.7"/>
<text text-anchor="start" x="118.9053" y="-128.8" font-family="Helvetica,sans-Serif" font-size="11.00" fill="#000000">2 &gt;</text>
</a>
</g>
</g>
<!-- CodeTable&#45;&gt;ParameterTable -->
<g id="edge1" class="edge">
<title>CodeTable:w&#45;&gt;ParameterTable:e</title>
<path fill="none" stroke="#000000" d="M172.7637,-136.2885C159.8632,-146.7952 159.6826,-171.7 137.5,-171.7"/>
<polygon fill="#000000" stroke="#000000" points="178.9121,-134.2347 187.6406,-135.1145 182.7061,-132.9673 186.5,-131.7 186.5,-131.7 186.5,-131.7 182.7061,-132.9673 185.3594,-128.2855 178.9121,-134.2347 178.9121,-134.2347"/>
<ellipse fill="none" stroke="#000000" cx="175.877" cy="-135.2486" rx="3.2" ry="3.2"/>
</g>
<!-- LanguageTable -->
<g id="node2" class="node">
<title>LanguageTable</title>
<g id="a_node2"><a xlink:href="../../tables/LanguageTable.html" xlink:title="LanguageTable" target="_top">
<polygon fill="#ffffff" stroke="transparent" points="209,-237.2 209,-320.2 354,-320.2 354,-237.2 209,-237.2"/>
<polygon fill="#f5f5f5" stroke="transparent" points="209.5,-296.7 209.5,-319.7 354.5,-319.7 354.5,-296.7 209.5,-296.7"/>
<polygon fill="none" stroke="#000000" points="209.5,-296.7 209.5,-319.7 354.5,-319.7 354.5,-296.7 209.5,-296.7"/>
<text text-anchor="start" x="214.5" y="-305.8" font-family="Helvetica,sans-Serif" font-weight="bold" font-size="11.00" fill="#000000">LanguageTable</text>
<text text-anchor="start" x="319.5437" y="-304.8" font-family="Helvetica,sans-Serif" font-size="11.00" fill="#000000">[table]</text>
<polygon fill="none" stroke="#000000" points="209.5,-274.7 209.5,-296.7 354.5,-296.7 354.5,-274.7 209.5,-274.7"/>
<image xlink:href="../../images/primaryKeys.png" width="11px" height="12px" preserveAspectRatio="xMinYMin meet" x="214.5" y="-291.7"/>
<text text-anchor="start" x="229.5" y="-281.8" font-family="Helvetica,sans-Serif" font-size="11.00" fill="#000000">cldf_id</text>
<polygon fill="none" stroke="#000000" points="209.5,-255.7 209.5,-274.7 354.5,-274.7 354.5,-255.7 209.5,-255.7"/>
<text text-anchor="start" x="212.5" y="-261.8" font-family="Helvetica,sans-Serif" font-size="11.00" fill="#000000">...</text>
<polygon fill="#ffffff" stroke="transparent" points="209.5,-236.7 209.5,-255.7 247.5,-255.7 247.5,-236.7 209.5,-236.7"/>
<polygon fill="none" stroke="#000000" points="209.5,-236.7 209.5,-255.7 247.5,-255.7 247.5,-236.7 209.5,-236.7"/>
<text text-anchor="start" x="212.5" y="-242.8" font-family="Helvetica,sans-Serif" font-size="11.00" fill="#000000"> &#160;</text>
<polygon fill="#ffffff" stroke="transparent" points="247.5,-236.7 247.5,-255.7 319.5,-255.7 319.5,-236.7 247.5,-236.7"/>
<polygon fill="none" stroke="#000000" points="247.5,-236.7 247.5,-255.7 319.5,-255.7 319.5,-236.7 247.5,-236.7"/>
<text text-anchor="start" x="262.7089" y="-242.8" font-family="Helvetica,sans-Serif" font-size="11.00" fill="#000000">3,338 rows</text>
<polygon fill="#ffffff" stroke="transparent" points="319.5,-236.7 319.5,-255.7 354.5,-255.7 354.5,-236.7 319.5,-236.7"/>
<polygon fill="none" stroke="#000000" points="319.5,-236.7 319.5,-255.7 354.5,-255.7 354.5,-236.7 319.5,-236.7"/>
<text text-anchor="start" x="335.9053" y="-242.8" font-family="Helvetica,sans-Serif" font-size="11.00" fill="#000000">1 &gt;</text>
</a>
</g>
</g>
<!-- SourceTable -->
<g id="node4" class="node">
<title>SourceTable</title>
<g id="a_node4"><a xlink:href="../../tables/SourceTable.html" xlink:title="SourceTable" target="_top">
<polygon fill="#ffffff" stroke="transparent" points="464,-38.2 464,-121.2 579,-121.2 579,-38.2 464,-38.2"/>
<polygon fill="#f5f5f5" stroke="transparent" points="464.5,-97.7 464.5,-120.7 579.5,-120.7 579.5,-97.7 464.5,-97.7"/>
<polygon fill="none" stroke="#000000" points="464.5,-97.7 464.5,-120.7 579.5,-120.7 579.5,-97.7 464.5,-97.7"/>
<text text-anchor="start" x="469.5" y="-106.8" font-family="Helvetica,sans-Serif" font-weight="bold" font-size="11.00" fill="#000000">SourceTable</text>
<text text-anchor="start" x="544.5437" y="-105.8" font-family="Helvetica,sans-Serif" font-size="11.00" fill="#000000">[table]</text>
<polygon fill="none" stroke="#000000" points="464.5,-75.7 464.5,-97.7 579.5,-97.7 579.5,-75.7 464.5,-75.7"/>
<image xlink:href="../../images/primaryKeys.png" width="11px" height="12px" preserveAspectRatio="xMinYMin meet" x="469.5" y="-92.7"/>
<text text-anchor="start" x="484.5" y="-82.8" font-family="Helvetica,sans-Serif" font-size="11.00" fill="#000000">id</text>
<polygon fill="none" stroke="#000000" points="464.5,-56.7 464.5,-75.7 579.5,-75.7 579.5,-56.7 464.5,-56.7"/>
<text text-anchor="start" x="467.5" y="-62.8" font-family="Helvetica,sans-Serif" font-size="11.00" fill="#000000">...</text>
<polygon fill="#ffffff" stroke="transparent" points="464.5,-37.7 464.5,-56.7 487.5,-56.7 487.5,-37.7 464.5,-37.7"/>
<polygon fill="none" stroke="#000000" points="464.5,-37.7 464.5,-56.7 487.5,-56.7 487.5,-37.7 464.5,-37.7"/>
<text text-anchor="start" x="467.5" y="-43.8" font-family="Helvetica,sans-Serif" font-size="11.00" fill="#000000"> &#160;</text>
<polygon fill="#ffffff" stroke="transparent" points="487.5,-37.7 487.5,-56.7 552.5,-56.7 552.5,-37.7 487.5,-37.7"/>
<polygon fill="none" stroke="#000000" points="487.5,-37.7 487.5,-56.7 552.5,-56.7 552.5,-37.7 487.5,-37.7"/>
<text text-anchor="start" x="495.7089" y="-43.8" font-family="Helvetica,sans-Serif" font-size="11.00" fill="#000000">2,000 rows</text>
<polygon fill="#ffffff" stroke="transparent" points="552.5,-37.7 552.5,-56.7 579.5,-56.7 579.5,-37.7 552.5,-37.7"/>
<polygon fill="none" stroke="#000000" points="552.5,-37.7 552.5,-56.7 579.5,-56.7 579.5,-37.7 552.5,-37.7"/>
<text text-anchor="start" x="560.9053" y="-43.8" font-family="Helvetica,sans-Serif" font-size="11.00" fill="#000000">1 &gt;</text>
</a>
</g>
</g>
<!-- ValueTable -->
<g id="node5" class="node">
<title>ValueTable</title>
<g id="a_node5"><a xlink:href="../../tables/ValueTable.html" xlink:title="ValueTable" target="_top">
<polygon fill="#ffffff" stroke="transparent" points="426,-142.2 426,-291.2 617,-291.2 617,-142.2 426,-142.2"/>
<polygon fill="#f5f5f5" stroke="transparent" points="426.5,-267.7 426.5,-290.7 617.5,-290.7 617.5,-267.7 426.5,-267.7"/>
<polygon fill="none" stroke="#000000" points="426.5,-267.7 426.5,-290.7 617.5,-290.7 617.5,-267.7 426.5,-267.7"/>
<text text-anchor="start" x="431.5" y="-276.8" font-family="Helvetica,sans-Serif" font-weight="bold" font-size="11.00" fill="#000000">ValueTable</text>
<text text-anchor="start" x="582.5437" y="-275.8" font-family="Helvetica,sans-Serif" font-size="11.00" fill="#000000">[table]</text>
<polygon fill="none" stroke="#000000" points="426.5,-245.7 426.5,-267.7 617.5,-267.7 617.5,-245.7 426.5,-245.7"/>
<image xlink:href="../../images/primaryKeys.png" width="11px" height="12px" preserveAspectRatio="xMinYMin meet" x="431.5" y="-262.7"/>
<text text-anchor="start" x="446.5" y="-252.8" font-family="Helvetica,sans-Serif" font-size="11.00" fill="#000000">cldf_id</text>
<polygon fill="none" stroke="#000000" points="426.5,-223.7 426.5,-245.7 617.5,-245.7 617.5,-223.7 426.5,-223.7"/>
<image xlink:href="../../images/foreignKeys.png" width="11px" height="12px" preserveAspectRatio="xMinYMin meet" x="431.5" y="-240.7"/>
<text text-anchor="start" x="446.5" y="-230.8" font-family="Helvetica,sans-Serif" font-size="11.00" fill="#000000">cldf_languageReference</text>
<polygon fill="none" stroke="#000000" points="426.5,-201.7 426.5,-223.7 617.5,-223.7 617.5,-201.7 426.5,-201.7"/>
<image xlink:href="../../images/foreignKeys.png" width="11px" height="12px" preserveAspectRatio="xMinYMin meet" x="431.5" y="-218.7"/>
<text text-anchor="start" x="446.5" y="-208.8" font-family="Helvetica,sans-Serif" font-size="11.00" fill="#000000">cldf_parameterReference</text>
<polygon fill="none" stroke="#000000" points="426.5,-179.7 426.5,-201.7 617.5,-201.7 617.5,-179.7 426.5,-179.7"/>
<image xlink:href="../../images/foreignKeys.png" width="11px" height="12px" preserveAspectRatio="xMinYMin meet" x="431.5" y="-196.7"/>
<text text-anchor="start" x="446.5" y="-186.8" font-family="Helvetica,sans-Serif" font-size="11.00" fill="#000000">cldf_codeReference</text>
<polygon fill="none" stroke="#000000" points="426.5,-160.7 426.5,-179.7 617.5,-179.7 617.5,-160.7 426.5,-160.7"/>
<text text-anchor="start" x="429.5" y="-166.8" font-family="Helvetica,sans-Serif" font-size="11.00" fill="#000000">...</text>
<polygon fill="#ffffff" stroke="transparent" points="426.5,-141.7 426.5,-160.7 492.5,-160.7 492.5,-141.7 426.5,-141.7"/>
<polygon fill="none" stroke="#000000" points="426.5,-141.7 426.5,-160.7 492.5,-160.7 492.5,-141.7 426.5,-141.7"/>
<text text-anchor="start" x="429.5" y="-147.8" font-family="Helvetica,sans-Serif" font-size="11.00" fill="#000000">&lt; 3</text>
<polygon fill="#ffffff" stroke="transparent" points="492.5,-141.7 492.5,-160.7 573.5,-160.7 573.5,-141.7 492.5,-141.7"/>
<polygon fill="none" stroke="#000000" points="492.5,-141.7 492.5,-160.7 573.5,-160.7 573.5,-141.7 492.5,-141.7"/>
<text text-anchor="start" x="516.7089" y="-147.8" font-family="Helvetica,sans-Serif" font-size="11.00" fill="#000000">3,338 rows</text>
<polygon fill="#ffffff" stroke="transparent" points="573.5,-141.7 573.5,-160.7 617.5,-160.7 617.5,-141.7 573.5,-141.7"/>
<polygon fill="none" stroke="#000000" points="573.5,-141.7 573.5,-160.7 617.5,-160.7 617.5,-141.7 573.5,-141.7"/>
<text text-anchor="start" x="598.9053" y="-147.8" font-family="Helvetica,sans-Serif" font-size="11.00" fill="#000000">1 &gt;</text>
</a>
</g>
</g>
<!-- ValueTable&#45;&gt;CodeTable -->
<g id="edge2" class="edge">
<title>ValueTable:w&#45;&gt;CodeTable:e</title>
<path fill="none" stroke="#000000" d="M412.6217,-186.1631C400.0786,-176.283 398.8196,-153.7 377.5,-153.7"/>
<polygon fill="#000000" stroke="#000000" points="418.896,-188.2142 425.3814,-194.1218 422.698,-189.4571 426.5,-190.7 426.5,-190.7 426.5,-190.7 422.698,-189.4571 427.6186,-187.2782 418.896,-188.2142 418.896,-188.2142"/>
<ellipse fill="none" stroke="#000000" cx="415.8544" cy="-187.2198" rx="3.2" ry="3.2"/>
</g>
<!-- ValueTable&#45;&gt;LanguageTable -->
<g id="edge3" class="edge">
<title>ValueTable:w&#45;&gt;LanguageTable:e</title>
<path fill="none" stroke="#000000" d="M412.0816,-237.5881C388.1904,-248.3768 388.0468,-285.7 354.5,-285.7"/>
<polygon fill="#000000" stroke="#000000" points="418.6558,-236.2713 427.2071,-238.2299 422.5779,-235.4856 426.5,-234.7 426.5,-234.7 426.5,-234.7 422.5779,-235.4856 425.7929,-231.1701 418.6558,-236.2713 418.6558,-236.2713"/>
<ellipse fill="none" stroke="#000000" cx="415.5181" cy="-236.8998" rx="3.2" ry="3.2"/>
</g>
<!-- ValueTable&#45;&gt;ParameterTable -->
<g id="edge4" class="edge">
<title>ValueTable:w&#45;&gt;ParameterTable:e</title>
<path fill="none" stroke="#000000" d="M412.0489,-212.8203C312.7747,-214.4756 278.2157,-232.1487 178,-198.7 157.4795,-191.8509 159.1333,-171.7 137.5,-171.7"/>
<polygon fill="#000000" stroke="#000000" points="418.5003,-212.7666 426.53,-216.2999 422.5001,-212.7333 426.5,-212.7 426.5,-212.7 426.5,-212.7 422.5001,-212.7333 426.47,-209.1001 418.5003,-212.7666 418.5003,-212.7666"/>
<ellipse fill="none" stroke="#000000" cx="415.3004" cy="-212.7933" rx="3.2" ry="3.2"/>
</g>
<!-- ValueTable_SourceTable -->
<g id="node6" class="node">
<title>ValueTable_SourceTable</title>
<g id="a_node6"><a xlink:href="../../tables/ValueTable_SourceTable.html" xlink:title="ValueTable_SourceTable" target="_top">
<polygon fill="#ffffff" stroke="transparent" points="666,-112.2 666,-217.2 852,-217.2 852,-112.2 666,-112.2"/>
<polygon fill="#f5f5f5" stroke="transparent" points="666,-193.7 666,-216.7 852,-216.7 852,-193.7 666,-193.7"/>
<polygon fill="none" stroke="#000000" points="666,-193.7 666,-216.7 852,-216.7 852,-193.7 666,-193.7"/>
<text text-anchor="start" x="671" y="-202.8" font-family="Helvetica,sans-Serif" font-weight="bold" font-size="11.00" fill="#000000">ValueTable_SourceTable</text>
<text text-anchor="start" x="817.0437" y="-201.8" font-family="Helvetica,sans-Serif" font-size="11.00" fill="#000000">[table]</text>
<polygon fill="none" stroke="#000000" points="666,-171.7 666,-193.7 852,-193.7 852,-171.7 666,-171.7"/>
<image xlink:href="../../images/foreignKeys.png" width="11px" height="12px" preserveAspectRatio="xMinYMin meet" x="671" y="-188.7"/>
<text text-anchor="start" x="686" y="-178.8" font-family="Helvetica,sans-Serif" font-size="11.00" fill="#000000">ValueTable_cldf_id</text>
<polygon fill="none" stroke="#000000" points="666,-149.7 666,-171.7 852,-171.7 852,-149.7 666,-149.7"/>
<image xlink:href="../../images/foreignKeys.png" width="11px" height="12px" preserveAspectRatio="xMinYMin meet" x="671" y="-166.7"/>
<text text-anchor="start" x="686" y="-156.8" font-family="Helvetica,sans-Serif" font-size="11.00" fill="#000000">SourceTable_id</text>
<polygon fill="none" stroke="#000000" points="666,-130.7 666,-149.7 852,-149.7 852,-130.7 666,-130.7"/>
<text text-anchor="start" x="669" y="-136.8" font-family="Helvetica,sans-Serif" font-size="11.00" fill="#000000">...</text>
<polygon fill="#ffffff" stroke="transparent" points="666,-111.7 666,-130.7 734,-130.7 734,-111.7 666,-111.7"/>
<polygon fill="none" stroke="#000000" points="666,-111.7 666,-130.7 734,-130.7 734,-111.7 666,-111.7"/>
<text text-anchor="start" x="669" y="-117.8" font-family="Helvetica,sans-Serif" font-size="11.00" fill="#000000">&lt; 2</text>
<polygon fill="#ffffff" stroke="transparent" points="734,-111.7 734,-130.7 816,-130.7 816,-111.7 734,-111.7"/>
<polygon fill="none" stroke="#000000" points="734,-111.7 734,-130.7 816,-130.7 816,-111.7 734,-111.7"/>
<text text-anchor="start" x="759.2089" y="-117.8" font-family="Helvetica,sans-Serif" font-size="11.00" fill="#000000">1,950 rows</text>
<polygon fill="#ffffff" stroke="transparent" points="816,-111.7 816,-130.7 852,-130.7 852,-111.7 816,-111.7"/>
<polygon fill="none" stroke="#000000" points="816,-111.7 816,-130.7 852,-130.7 852,-111.7 816,-111.7"/>
<text text-anchor="start" x="842.8862" y="-117.8" font-family="Helvetica,sans-Serif" font-size="11.00" fill="#000000"> &#160;</text>
</a>
</g>
</g>
<!-- ValueTable_SourceTable&#45;&gt;SourceTable -->
<g id="edge5" class="edge">
<title>ValueTable_SourceTable:w&#45;&gt;SourceTable:e</title>
<path fill="none" stroke="#000000" d="M651.5711,-158.2379C617.8386,-145.3978 624.5594,-86.7 579.5,-86.7"/>
<polygon fill="#000000" stroke="#000000" points="658.114,-159.3543 665.3944,-164.2487 662.057,-160.0272 666,-160.7 666,-160.7 666,-160.7 662.057,-160.0272 666.6056,-157.1513 658.114,-159.3543 658.114,-159.3543"/>
<ellipse fill="none" stroke="#000000" cx="654.9596" cy="-158.816" rx="3.2" ry="3.2"/>
</g>
<!-- ValueTable_SourceTable&#45;&gt;ValueTable -->
<g id="edge6" class="edge">
<title>ValueTable_SourceTable:w&#45;&gt;ValueTable:e</title>
<path fill="none" stroke="#000000" d="M652.1253,-187.5553C634.4015,-204.0184 650.679,-256.7 617.5,-256.7"/>
<polygon fill="#000000" stroke="#000000" points="658.449,-185.3425 667.1891,-186.098 662.2245,-184.0212 666,-182.7 666,-182.7 666,-182.7 662.2245,-184.0212 664.8109,-179.302 658.449,-185.3425 658.449,-185.3425"/>
<ellipse fill="none" stroke="#000000" cx="655.4286" cy="-186.3994" rx="3.2" ry="3.2"/>
</g>
</g>
</svg>
