<svg class="toyplot-canvas-Canvas" xmlns:toyplot="http://www.sandia.gov/toyplot" xmlns:xlink="http://www.w3.org/1999/xlink" xmlns="http://www.w3.org/2000/svg" width="800.0px" height="275.0px" viewBox="0 0 800.0 275.0" preserveAspectRatio="xMidYMid meet" style="background-color:transparent;border-color:#292724;border-style:none;border-width:1.0;fill:rgb(16.1%,15.3%,14.1%);fill-opacity:1.0;font-family:Helvetica;font-size:12px;opacity:1.0;stroke:rgb(16.1%,15.3%,14.1%);stroke-opacity:1.0;stroke-width:1.0" id="t1f628c7f4fa94fabb656bdbac023bf68"><g class="toyplot-coordinates-Cartesian" id="tfe239a4f1b5a43aa878fb1aabebac616"><clipPath id="td9affef2ab3b493ba2a6c7ddc4138455"><rect x="30.0" y="30.0" width="740.0" height="215.0" /></clipPath><g clip-path="url(#td9affef2ab3b493ba2a6c7ddc4138455)"><g class="toytree-mark-Toytree" id="tc7c35971a11c48ebaa5b8c9a60eef3c5"><g class="toytree-Edges" style="fill:none;stroke:rgb(14.9%,14.9%,14.9%);stroke-linecap:round;stroke-opacity:1;stroke-width:2"><path d="M 50.0 101.1 L 50.0 101.1 L 254.7 101.1" id="19,18" /><path d="M 254.7 101.1 L 254.7 61.0 L 459.3 61.0" id="18,17" /><path d="M 254.7 101.1 L 254.7 82.9 L 459.3 82.9" id="18,16" /><path d="M 254.7 101.1 L 254.7 159.4 L 459.3 159.4" id="18,15" /><path d="M 459.3 61.0 L 459.3 61.0 L 664.0 61.0" id="17,14" /><path d="M 459.3 82.9 L 459.3 71.9 L 664.0 71.9" id="16,13" /><path d="M 459.3 82.9 L 459.3 82.9 L 664.0 82.9" id="16,12" /><path d="M 459.3 82.9 L 459.3 93.8 L 664.0 93.8" id="16,11" /><path d="M 459.3 159.4 L 459.3 104.7 L 664.0 104.7" id="15,10" /><path d="M 459.3 159.4 L 459.3 115.6 L 664.0 115.6" id="15,9" /><path d="M 459.3 159.4 L 459.3 126.6 L 664.0 126.6" id="15,8" /><path d="M 459.3 159.4 L 459.3 137.5 L 664.0 137.5" id="15,7" /><path d="M 459.3 159.4 L 459.3 148.4 L 664.0 148.4" id="15,6" /><path d="M 459.3 159.4 L 459.3 159.4 L 664.0 159.4" id="15,5" /><path d="M 459.3 159.4 L 459.3 170.3 L 664.0 170.3" id="15,4" /><path d="M 459.3 159.4 L 459.3 181.2 L 664.0 181.2" id="15,3" /><path d="M 459.3 159.4 L 459.3 192.1 L 664.0 192.1" id="15,2" /><path d="M 459.3 159.4 L 459.3 203.1 L 664.0 203.1" id="15,1" /><path d="M 459.3 159.4 L 459.3 214.0 L 664.0 214.0" id="15,0" /></g><g class="toytree-AlignEdges" style="stroke:rgb(66.3%,66.3%,66.3%);stroke-dasharray:2, 4;stroke-linecap:round;stroke-opacity:1.0;stroke-width:2"><path d="M 664.0 214.0 L 664.0 214.0" /><path d="M 664.0 203.1 L 664.0 203.1" /><path d="M 664.0 192.1 L 664.0 192.1" /><path d="M 664.0 181.2 L 664.0 181.2" /><path d="M 664.0 170.3 L 664.0 170.3" /><path d="M 664.0 159.4 L 664.0 159.4" /><path d="M 664.0 148.4 L 664.0 148.4" /><path d="M 664.0 137.5 L 664.0 137.5" /><path d="M 664.0 126.6 L 664.0 126.6" /><path d="M 664.0 115.6 L 664.0 115.6" /><path d="M 664.0 104.7 L 664.0 104.7" /><path d="M 664.0 93.8 L 664.0 93.8" /><path d="M 664.0 82.9 L 664.0 82.9" /><path d="M 664.0 71.9 L 664.0 71.9" /><path d="M 664.0 61.0 L 664.0 61.0" /></g><g class="toytree-Nodes" style="fill:rgb(82.7%,82.7%,82.7%);fill-opacity:1.0;stroke:rgb(0%,0%,0%);stroke-opacity:1.0;stroke-width:0.75"><g id="node-0" transform="translate(663.997,213.986)"><rect x="0.0" y="0.0" width="0.0" height="0.0" /></g><g id="node-1" transform="translate(663.997,203.059)"><rect x="0.0" y="0.0" width="0.0" height="0.0" /></g><g id="node-2" transform="translate(663.997,192.133)"><rect x="0.0" y="0.0" width="0.0" height="0.0" /></g><g id="node-3" transform="translate(663.997,181.206)"><rect x="0.0" y="0.0" width="0.0" height="0.0" /></g><g id="node-4" transform="translate(663.997,170.280)"><rect x="0.0" y="0.0" width="0.0" height="0.0" /></g><g id="node-5" transform="translate(663.997,159.353)"><rect x="0.0" y="0.0" width="0.0" height="0.0" /></g><g id="node-6" transform="translate(663.997,148.427)"><rect x="0.0" y="0.0" width="0.0" height="0.0" /></g><g id="node-7" transform="translate(663.997,137.500)"><rect x="0.0" y="0.0" width="0.0" height="0.0" /></g><g id="node-8" transform="translate(663.997,126.573)"><rect x="0.0" y="0.0" width="0.0" height="0.0" /></g><g id="node-9" transform="translate(663.997,115.647)"><rect x="0.0" y="0.0" width="0.0" height="0.0" /></g><g id="node-10" transform="translate(663.997,104.720)"><rect x="0.0" y="0.0" width="0.0" height="0.0" /></g><g id="node-11" transform="translate(663.997,93.794)"><rect x="0.0" y="0.0" width="0.0" height="0.0" /></g><g id="node-12" transform="translate(663.997,82.867)"><rect x="0.0" y="0.0" width="0.0" height="0.0" /></g><g id="node-13" transform="translate(663.997,71.941)"><rect x="0.0" y="0.0" width="0.0" height="0.0" /></g><g id="node-14" transform="translate(663.997,61.014)"><rect x="0.0" y="0.0" width="0.0" height="0.0" /></g><g id="node-15" transform="translate(459.332,159.353)"><rect x="-60.0" y="-7.5" width="120.0" height="15.0" /></g><g id="node-16" transform="translate(459.332,82.867)"><rect x="-60.0" y="-7.5" width="120.0" height="15.0" /></g><g id="node-17" transform="translate(459.332,61.014)"><rect x="-60.0" y="-7.5" width="120.0" height="15.0" /></g><g id="node-18" transform="translate(254.666,101.078)"><rect x="-60.0" y="-7.5" width="120.0" height="15.0" /></g><g id="node-19" transform="translate(50.000,101.078)"><rect x="0.0" y="0.0" width="0.0" height="0.0" /></g></g><g class="toytree-NodeLabels" style="fill:rgb(14.9%,14.9%,14.9%);fill-opacity:1.0;font-size:10px;stroke:none"><g transform="translate(427.94,161.91)"><title>idx: 15
dist: 1.0000
support: 0.0000
height: 1.0000
name: Ta-Ne-Omotic</title><text>Ta-Ne-Omotic</text></g><g transform="translate(430.43,85.42)"><title>idx: 16
dist: 1.0000
support: 0.0000
height: 1.0000
name: SouthOmotic</title><text>SouthOmotic</text></g><g transform="translate(445.44,63.57)"><title>idx: 17
dist: 1.0000
support: 0.0000
height: 1.0000
name: Dizoid</title><text>Dizoid</text></g><g transform="translate(238.83,103.63)"><title>idx: 18
dist: 1.0000
support: 0.0000
height: 2.0000
name: Omotic</title><text>Omotic</text></g></g><g class="toytree-TipLabels" style="fill:rgb(14.9%,14.9%,14.9%);fill-opacity:1.0;font-family:helvetica;font-size:11px;font-weight:normal;stroke:none;white-space:pre"><g transform="translate(664.00,213.99)rotate(0)"><text x="5.00" y="2.81" style="">Zayse</text></g><g transform="translate(664.00,203.06)rotate(0)"><text x="5.00" y="2.81" style="">Yemsa</text></g><g transform="translate(664.00,192.13)rotate(0)"><text x="5.00" y="2.81" style="">Wolaytta</text></g><g transform="translate(664.00,181.21)rotate(0)"><text x="5.00" y="2.81" style="">Shinassha</text></g><g transform="translate(664.00,170.28)rotate(0)"><text x="5.00" y="2.81" style="">Moca</text></g><g transform="translate(664.00,159.35)rotate(0)"><text x="5.00" y="2.81" style="">Maale</text></g><g transform="translate(664.00,148.43)rotate(0)"><text x="5.00" y="2.81" style="">Kullo</text></g><g transform="translate(664.00,137.50)rotate(0)"><text x="5.00" y="2.81" style="">Koorete</text></g><g transform="translate(664.00,126.57)rotate(0)"><text x="5.00" y="2.81" style="">Kefa</text></g><g transform="translate(664.00,115.65)rotate(0)"><text x="5.00" y="2.81" style="">Gimira</text></g><g transform="translate(664.00,104.72)rotate(0)"><text x="5.00" y="2.81" style="">Gamo</text></g><g transform="translate(664.00,93.79)rotate(0)"><text x="5.00" y="2.81" style="">Hamer</text></g><g transform="translate(664.00,82.87)rotate(0)"><text x="5.00" y="2.81" style="">Dime</text></g><g transform="translate(664.00,71.94)rotate(0)"><text x="5.00" y="2.81" style="">Aari</text></g><g transform="translate(664.00,61.01)rotate(0)"><text x="5.00" y="2.81" style="">Dizi</text></g></g></g></g><g class="toyplot-coordinates-Axis" id="t7129885d4cc74d17b8a5d4c5f13625a7" transform="translate(50.0,225.0)translate(0,20.0)"><line x1="0" y1="0" x2="613.9973861254134" y2="0" style="" /><g><line x1="613.9973861254134" y1="0" x2="613.9973861254134" y2="-5" style="" /><line x1="526.2834738217829" y1="0" x2="526.2834738217829" y2="-5" style="" /><line x1="438.5695615181524" y1="0" x2="438.5695615181524" y2="-5" style="" /><line x1="350.8556492145219" y1="0" x2="350.8556492145219" y2="-5" style="" /><line x1="263.14173691089144" y1="0" x2="263.14173691089144" y2="-5" style="" /><line x1="175.42782460726096" y1="0" x2="175.42782460726096" y2="-5" style="" /><line x1="87.71391230363054" y1="0" x2="87.71391230363054" y2="-5" style="" /><line x1="0.0" y1="0" x2="0.0" y2="-5" style="" /></g><g><g transform="translate(613.9973861254134,6)"><text x="-6.95" y="8.555" style="fill:rgb(16.1%,15.3%,14.1%);fill-opacity:1.0;font-family:helvetica;font-size:10.0px;font-weight:normal;stroke:none;vertical-align:baseline;white-space:pre">0.0</text></g><g transform="translate(526.2834738217829,6)"><text x="-6.95" y="8.555" style="fill:rgb(16.1%,15.3%,14.1%);fill-opacity:1.0;font-family:helvetica;font-size:10.0px;font-weight:normal;stroke:none;vertical-align:baseline;white-space:pre">0.4</text></g><g transform="translate(438.5695615181524,6)"><text x="-6.95" y="8.555" style="fill:rgb(16.1%,15.3%,14.1%);fill-opacity:1.0;font-family:helvetica;font-size:10.0px;font-weight:normal;stroke:none;vertical-align:baseline;white-space:pre">0.9</text></g><g transform="translate(350.8556492145219,6)"><text x="-6.95" y="8.555" style="fill:rgb(16.1%,15.3%,14.1%);fill-opacity:1.0;font-family:helvetica;font-size:10.0px;font-weight:normal;stroke:none;vertical-align:baseline;white-space:pre">1.3</text></g><g transform="translate(263.14173691089144,6)"><text x="-6.95" y="8.555" style="fill:rgb(16.1%,15.3%,14.1%);fill-opacity:1.0;font-family:helvetica;font-size:10.0px;font-weight:normal;stroke:none;vertical-align:baseline;white-space:pre">1.7</text></g><g transform="translate(175.42782460726096,6)"><text x="-6.95" y="8.555" style="fill:rgb(16.1%,15.3%,14.1%);fill-opacity:1.0;font-family:helvetica;font-size:10.0px;font-weight:normal;stroke:none;vertical-align:baseline;white-space:pre">2.1</text></g><g transform="translate(87.71391230363054,6)"><text x="-6.95" y="8.555" style="fill:rgb(16.1%,15.3%,14.1%);fill-opacity:1.0;font-family:helvetica;font-size:10.0px;font-weight:normal;stroke:none;vertical-align:baseline;white-space:pre">2.6</text></g><g transform="translate(0.0,6)"><text x="-6.95" y="8.555" style="fill:rgb(16.1%,15.3%,14.1%);fill-opacity:1.0;font-family:helvetica;font-size:10.0px;font-weight:normal;stroke:none;vertical-align:baseline;white-space:pre">3.0</text></g></g><g class="toyplot-coordinates-Axis-coordinates" style="visibility:hidden" transform=""><line x1="0" x2="0" y1="-3.0" y2="4.5" style="stroke:rgb(43.9%,50.2%,56.5%);stroke-opacity:1.0;stroke-width:1.0" /><text x="0" y="-6" style="alignment-baseline:alphabetic;fill:rgb(43.9%,50.2%,56.5%);fill-opacity:1.0;font-size:10px;font-weight:normal;stroke:none;text-anchor:middle" /></g></g><g transform="translate(400.0,42.0)"><text x="-295.645" y="-4.823" style="fill:rgb(16.1%,15.3%,14.1%);fill-opacity:1.0;font-family:helvetica;font-size:14.0px;font-weight:bold;stroke:none;vertical-align:baseline;white-space:pre">family-afroasiatic - Genealogical classification of the languages in the family Afro-Asiatic</text></g></g></svg>