<svg class="toyplot-canvas-Canvas" xmlns:toyplot="http://www.sandia.gov/toyplot" xmlns:xlink="http://www.w3.org/1999/xlink" xmlns="http://www.w3.org/2000/svg" width="800.0px" height="335.0px" viewBox="0 0 800.0 335.0" preserveAspectRatio="xMidYMid meet" style="background-color:transparent;border-color:#292724;border-style:none;border-width:1.0;fill:rgb(16.1%,15.3%,14.1%);fill-opacity:1.0;font-family:Helvetica;font-size:12px;opacity:1.0;stroke:rgb(16.1%,15.3%,14.1%);stroke-opacity:1.0;stroke-width:1.0" id="t87eba2dc673e4d588cec71d6c0aa75c1"><g class="toyplot-coordinates-Cartesian" id="tcc3f1ecbae73474388080cbeb13b768f"><clipPath id="t46d497ea04564123bcdbbfeabe92ade1"><rect x="30.0" y="30.0" width="740.0" height="275.0" /></clipPath><g clip-path="url(#t46d497ea04564123bcdbbfeabe92ade1)"><g class="toytree-mark-Toytree" id="t68c238656d0e43159fb91695c3190636"><g class="toytree-Edges" style="fill:none;stroke:rgb(14.9%,14.9%,14.9%);stroke-linecap:round;stroke-opacity:1;stroke-width:2"><path d="M 50.0 98.9 L 50.0 98.7 L 178.8 98.7" id="26,25" /><path d="M 50.0 98.9 L 50.0 162.5 L 178.8 162.5" id="26,24" /><path d="M 178.8 98.7 L 178.8 114.4 L 307.7 114.4" id="25,23" /><path d="M 178.8 162.5 L 178.8 155.7 L 307.7 155.7" id="24,22" /><path d="M 178.8 162.5 L 178.8 199.7 L 307.7 199.7" id="24,21" /><path d="M 307.7 199.7 L 307.7 228.8 L 436.5 228.8" id="21,20" /><path d="M 436.5 228.8 L 436.5 261.8 L 565.3 261.8" id="20,19" /><path d="M 50.0 98.9 L 50.0 61.4 L 178.8 61.4" id="26,18" /><path d="M 50.0 98.9 L 50.0 73.2 L 178.8 73.2" id="26,17" /><path d="M 178.8 98.7 L 178.8 85.0 L 307.7 85.0" id="25,16" /><path d="M 178.8 98.7 L 178.8 96.8 L 307.7 96.8" id="25,15" /><path d="M 307.7 114.4 L 307.7 108.5 L 436.5 108.5" id="23,14" /><path d="M 307.7 114.4 L 307.7 120.3 L 436.5 120.3" id="23,13" /><path d="M 178.8 162.5 L 178.8 132.1 L 307.7 132.1" id="24,12" /><path d="M 307.7 155.7 L 307.7 143.9 L 436.5 143.9" id="22,11" /><path d="M 307.7 155.7 L 307.7 155.7 L 436.5 155.7" id="22,10" /><path d="M 307.7 155.7 L 307.7 167.5 L 436.5 167.5" id="22,9" /><path d="M 307.7 199.7 L 307.7 179.3 L 436.5 179.3" id="21,8" /><path d="M 307.7 199.7 L 307.7 191.1 L 436.5 191.1" id="21,7" /><path d="M 436.5 228.8 L 436.5 202.9 L 565.3 202.9" id="20,6" /><path d="M 436.5 228.8 L 436.5 214.7 L 565.3 214.7" id="20,5" /><path d="M 436.5 228.8 L 436.5 226.5 L 565.3 226.5" id="20,4" /><path d="M 436.5 228.8 L 436.5 238.2 L 565.3 238.2" id="20,3" /><path d="M 565.3 261.8 L 565.3 250.0 L 694.2 250.0" id="19,2" /><path d="M 565.3 261.8 L 565.3 261.8 L 694.2 261.8" id="19,1" /><path d="M 565.3 261.8 L 565.3 273.6 L 694.2 273.6" id="19,0" /></g><g class="toytree-AlignEdges" style="stroke:rgb(66.3%,66.3%,66.3%);stroke-dasharray:2, 4;stroke-linecap:round;stroke-opacity:1.0;stroke-width:2"><path d="M 694.2 273.6 L 694.2 273.6" /><path d="M 694.2 261.8 L 694.2 261.8" /><path d="M 694.2 250.0 L 694.2 250.0" /><path d="M 694.2 238.2 L 565.3 238.2" /><path d="M 694.2 226.5 L 565.3 226.5" /><path d="M 694.2 214.7 L 565.3 214.7" /><path d="M 694.2 202.9 L 565.3 202.9" /><path d="M 694.2 191.1 L 436.5 191.1" /><path d="M 694.2 179.3 L 436.5 179.3" /><path d="M 694.2 167.5 L 436.5 167.5" /><path d="M 694.2 155.7 L 436.5 155.7" /><path d="M 694.2 143.9 L 436.5 143.9" /><path d="M 694.2 132.1 L 307.7 132.1" /><path d="M 694.2 120.3 L 436.5 120.3" /><path d="M 694.2 108.5 L 436.5 108.5" /><path d="M 694.2 96.8 L 307.7 96.8" /><path d="M 694.2 85.0 L 307.7 85.0" /><path d="M 694.2 73.2 L 178.8 73.2" /><path d="M 694.2 61.4 L 178.8 61.4" /></g><g class="toytree-Nodes" style="fill:rgb(82.7%,82.7%,82.7%);fill-opacity:1.0;stroke:rgb(0%,0%,0%);stroke-opacity:1.0;stroke-width:0.75"><g id="node-0" transform="translate(694.170,273.620)"><rect x="0.0" y="0.0" width="0.0" height="0.0" /></g><g id="node-1" transform="translate(694.170,261.829)"><rect x="0.0" y="0.0" width="0.0" height="0.0" /></g><g id="node-2" transform="translate(694.170,250.038)"><rect x="0.0" y="0.0" width="0.0" height="0.0" /></g><g id="node-3" transform="translate(565.336,238.247)"><rect x="0.0" y="0.0" width="0.0" height="0.0" /></g><g id="node-4" transform="translate(565.336,226.456)"><rect x="0.0" y="0.0" width="0.0" height="0.0" /></g><g id="node-5" transform="translate(565.336,214.665)"><rect x="0.0" y="0.0" width="0.0" height="0.0" /></g><g id="node-6" transform="translate(565.336,202.873)"><rect x="0.0" y="0.0" width="0.0" height="0.0" /></g><g id="node-7" transform="translate(436.502,191.082)"><rect x="0.0" y="0.0" width="0.0" height="0.0" /></g><g id="node-8" transform="translate(436.502,179.291)"><rect x="0.0" y="0.0" width="0.0" height="0.0" /></g><g id="node-9" transform="translate(436.502,167.500)"><rect x="0.0" y="0.0" width="0.0" height="0.0" /></g><g id="node-10" transform="translate(436.502,155.709)"><rect x="0.0" y="0.0" width="0.0" height="0.0" /></g><g id="node-11" transform="translate(436.502,143.918)"><rect x="0.0" y="0.0" width="0.0" height="0.0" /></g><g id="node-12" transform="translate(307.668,132.127)"><rect x="0.0" y="0.0" width="0.0" height="0.0" /></g><g id="node-13" transform="translate(436.502,120.335)"><rect x="0.0" y="0.0" width="0.0" height="0.0" /></g><g id="node-14" transform="translate(436.502,108.544)"><rect x="0.0" y="0.0" width="0.0" height="0.0" /></g><g id="node-15" transform="translate(307.668,96.753)"><rect x="0.0" y="0.0" width="0.0" height="0.0" /></g><g id="node-16" transform="translate(307.668,84.962)"><rect x="0.0" y="0.0" width="0.0" height="0.0" /></g><g id="node-17" transform="translate(178.834,73.171)"><rect x="0.0" y="0.0" width="0.0" height="0.0" /></g><g id="node-18" transform="translate(178.834,61.380)"><rect x="0.0" y="0.0" width="0.0" height="0.0" /></g><g id="node-19" transform="translate(565.336,261.829)"><rect x="-60.0" y="-7.5" width="120.0" height="15.0" /></g><g id="node-20" transform="translate(436.502,228.814)"><rect x="-60.0" y="-7.5" width="120.0" height="15.0" /></g><g id="node-21" transform="translate(307.668,199.729)"><rect x="-60.0" y="-7.5" width="120.0" height="15.0" /></g><g id="node-22" transform="translate(307.668,155.709)"><rect x="-60.0" y="-7.5" width="120.0" height="15.0" /></g><g id="node-23" transform="translate(307.668,114.440)"><rect x="-60.0" y="-7.5" width="120.0" height="15.0" /></g><g id="node-24" transform="translate(178.834,162.522)"><rect x="-60.0" y="-7.5" width="120.0" height="15.0" /></g><g id="node-25" transform="translate(178.834,98.718)"><rect x="-60.0" y="-7.5" width="120.0" height="15.0" /></g><g id="node-26" transform="translate(50.000,98.948)"><rect x="0.0" y="0.0" width="0.0" height="0.0" /></g></g><g class="toytree-NodeLabels" style="fill:rgb(14.9%,14.9%,14.9%);fill-opacity:1.0;font-size:10px;stroke:none"><g transform="translate(523.11,264.38)"><title>idx: 19
dist: 1.0000
support: 0.0000
height: 1.0000
name: Dawro-Gofa-Gamo</title><text>Dawro-Gofa-Gamo</text></g><g transform="translate(405.38,231.37)"><title>idx: 20
dist: 1.0000
support: 0.0000
height: 2.0000
name: CentralOmeto</title><text>CentralOmeto</text></g><g transform="translate(267.38,202.28)"><title>idx: 21
dist: 1.0000
support: 0.0000
height: 3.0000
name: North-WestOmeto</title><text>North-WestOmeto</text></g><g transform="translate(282.66,158.26)"><title>idx: 22
dist: 1.0000
support: 0.0000
height: 3.0000
name: EastOmeto</title><text>EastOmeto</text></g><g transform="translate(279.59,116.99)"><title>idx: 23
dist: 1.0000
support: 0.0000
height: 3.0000
name: SouthGonga</title><text>SouthGonga</text></g><g transform="translate(163.83,165.08)"><title>idx: 24
dist: 1.0000
support: 0.0000
height: 4.0000
name: Ometo</title><text>Ometo</text></g><g transform="translate(164.66,101.27)"><title>idx: 25
dist: 1.0000
support: 0.0000
height: 4.0000
name: Kefoid</title><text>Kefoid</text></g></g><g class="toytree-TipLabels" style="fill:rgb(14.9%,14.9%,14.9%);fill-opacity:1.0;font-family:helvetica;font-size:11px;font-weight:normal;stroke:none;white-space:pre"><g transform="translate(694.17,273.62)rotate(0)"><text x="5.00" y="2.81" style="">Gofa</text></g><g transform="translate(694.17,261.83)rotate(0)"><text x="5.00" y="2.81" style="">Gamo</text></g><g transform="translate(694.17,250.04)rotate(0)"><text x="5.00" y="2.81" style="">Dawro</text></g><g transform="translate(694.17,238.25)rotate(0)"><text x="5.00" y="2.81" style="">Wolaytta</text></g><g transform="translate(694.17,226.46)rotate(0)"><text x="5.00" y="2.81" style="">Oyda</text></g><g transform="translate(694.17,214.66)rotate(0)"><text x="5.00" y="2.81" style="">Melo</text></g><g transform="translate(694.17,202.87)rotate(0)"><text x="5.00" y="2.81" style="">Dorze</text></g><g transform="translate(694.17,191.08)rotate(0)"><text x="5.00" y="2.81" style="">Male_Ethiopia_</text></g><g transform="translate(694.17,179.29)rotate(0)"><text x="5.00" y="2.81" style="">Basketo</text></g><g transform="translate(694.17,167.50)rotate(0)"><text x="5.00" y="2.81" style="">Zayse-Zergulla</text></g><g transform="translate(694.17,155.71)rotate(0)"><text x="5.00" y="2.81" style="">Koorete</text></g><g transform="translate(694.17,143.92)rotate(0)"><text x="5.00" y="2.81" style="">Kachama-Ganjule-Haro</text></g><g transform="translate(694.17,132.13)rotate(0)"><text x="5.00" y="2.81" style="">Chara</text></g><g transform="translate(694.17,120.34)rotate(0)"><text x="5.00" y="2.81" style="">Shekkacho</text></g><g transform="translate(694.17,108.54)rotate(0)"><text x="5.00" y="2.81" style="">Kafa</text></g><g transform="translate(694.17,96.75)rotate(0)"><text x="5.00" y="2.81" style="">Boro_Ethiopia_</text></g><g transform="translate(694.17,84.96)rotate(0)"><text x="5.00" y="2.81" style="">Anfillo</text></g><g transform="translate(694.17,73.17)rotate(0)"><text x="5.00" y="2.81" style="">Yemsa</text></g><g transform="translate(694.17,61.38)rotate(0)"><text x="5.00" y="2.81" style="">Bench</text></g></g></g></g><g class="toyplot-coordinates-Axis" id="t22f88deb91494233bb7dda8fa0ff38d3" transform="translate(50.0,285.0)translate(0,20.0)"><line x1="0" y1="0" x2="644.169803160113" y2="0" style="" /><g><line x1="644.169803160113" y1="0" x2="644.169803160113" y2="-5" style="" /><line x1="552.1455455658112" y1="0" x2="552.1455455658112" y2="-5" style="" /><line x1="460.1212879715093" y1="0" x2="460.1212879715093" y2="-5" style="" /><line x1="368.09703037720743" y1="0" x2="368.09703037720743" y2="-5" style="" /><line x1="276.0727727829056" y1="0" x2="276.0727727829056" y2="-5" style="" /><line x1="184.0485151886037" y1="0" x2="184.0485151886037" y2="-5" style="" /><line x1="92.02425759430189" y1="0" x2="92.02425759430189" y2="-5" style="" /><line x1="0.0" y1="0" x2="0.0" y2="-5" style="" /></g><g><g transform="translate(644.169803160113,6)"><text x="-6.95" y="8.555" style="fill:rgb(16.1%,15.3%,14.1%);fill-opacity:1.0;font-family:helvetica;font-size:10.0px;font-weight:normal;stroke:none;vertical-align:baseline;white-space:pre">0.0</text></g><g transform="translate(552.1455455658112,6)"><text x="-6.95" y="8.555" style="fill:rgb(16.1%,15.3%,14.1%);fill-opacity:1.0;font-family:helvetica;font-size:10.0px;font-weight:normal;stroke:none;vertical-align:baseline;white-space:pre">0.7</text></g><g transform="translate(460.1212879715093,6)"><text x="-6.95" y="8.555" style="fill:rgb(16.1%,15.3%,14.1%);fill-opacity:1.0;font-family:helvetica;font-size:10.0px;font-weight:normal;stroke:none;vertical-align:baseline;white-space:pre">1.4</text></g><g transform="translate(368.09703037720743,6)"><text x="-6.95" y="8.555" style="fill:rgb(16.1%,15.3%,14.1%);fill-opacity:1.0;font-family:helvetica;font-size:10.0px;font-weight:normal;stroke:none;vertical-align:baseline;white-space:pre">2.1</text></g><g transform="translate(276.0727727829056,6)"><text x="-6.95" y="8.555" style="fill:rgb(16.1%,15.3%,14.1%);fill-opacity:1.0;font-family:helvetica;font-size:10.0px;font-weight:normal;stroke:none;vertical-align:baseline;white-space:pre">2.9</text></g><g transform="translate(184.0485151886037,6)"><text x="-6.95" y="8.555" style="fill:rgb(16.1%,15.3%,14.1%);fill-opacity:1.0;font-family:helvetica;font-size:10.0px;font-weight:normal;stroke:none;vertical-align:baseline;white-space:pre">3.6</text></g><g transform="translate(92.02425759430189,6)"><text x="-6.95" y="8.555" style="fill:rgb(16.1%,15.3%,14.1%);fill-opacity:1.0;font-family:helvetica;font-size:10.0px;font-weight:normal;stroke:none;vertical-align:baseline;white-space:pre">4.3</text></g><g transform="translate(0.0,6)"><text x="-6.95" y="8.555" style="fill:rgb(16.1%,15.3%,14.1%);fill-opacity:1.0;font-family:helvetica;font-size:10.0px;font-weight:normal;stroke:none;vertical-align:baseline;white-space:pre">5.0</text></g></g><g class="toyplot-coordinates-Axis-coordinates" style="visibility:hidden" transform=""><line x1="0" x2="0" y1="-3.0" y2="4.5" style="stroke:rgb(43.9%,50.2%,56.5%);stroke-opacity:1.0;stroke-width:1.0" /><text x="0" y="-6" style="alignment-baseline:alphabetic;fill:rgb(43.9%,50.2%,56.5%);fill-opacity:1.0;font-size:10px;font-weight:normal;stroke:none;text-anchor:middle" /></g></g><g transform="translate(400.0,42.0)"><text x="-264.502" y="-4.823" style="fill:rgb(16.1%,15.3%,14.1%);fill-opacity:1.0;font-family:helvetica;font-size:14.0px;font-weight:bold;stroke:none;vertical-align:baseline;white-space:pre">gong1255 - Glottolog classification of the languages in the family Ta-Ne-Omotic</text></g></g></svg>