<svg class="toyplot-canvas-Canvas" xmlns:toyplot="http://www.sandia.gov/toyplot" xmlns:xlink="http://www.w3.org/1999/xlink" xmlns="http://www.w3.org/2000/svg" width="600.0px" height="515.0px" viewBox="0 0 600.0 515.0" preserveAspectRatio="xMidYMid meet" style="background-color:transparent;border-color:#292724;border-style:none;border-width:1.0;fill:rgb(16.1%,15.3%,14.1%);fill-opacity:1.0;font-family:Helvetica;font-size:12px;opacity:1.0;stroke:rgb(16.1%,15.3%,14.1%);stroke-opacity:1.0;stroke-width:1.0" id="td048b38e86f8468eba7896a8099d1c66"><g class="toyplot-coordinates-Cartesian" id="t76dd345f62914501b0d4d3535125b7c3"><clipPath id="t15cfead3025743d88757afaeef2fccb9"><rect x="30.0" y="30.0" width="540.0" height="455.0" /></clipPath><g clip-path="url(#t15cfead3025743d88757afaeef2fccb9)"><g class="toytree-mark-Toytree" id="tded347ffaca4495f8b4df7d810b4a55c"><g class="toytree-Edges" style="fill:none;stroke:rgb(14.9%,14.9%,14.9%);stroke-linecap:round;stroke-opacity:1;stroke-width:2"><path d="M 50.0 135.8 L 50.0 61.9 L 196.6 61.9" id="34,33" /><path d="M 50.0 135.8 L 50.0 74.9 L 196.6 74.9" id="34,32" /><path d="M 50.0 135.8 L 50.0 270.5 L 196.6 270.5" id="34,31" /><path d="M 196.6 61.9 L 196.6 61.9 L 343.3 61.9" id="33,30" /><path d="M 196.6 74.9 L 196.6 74.9 L 343.3 74.9" id="32,29" /><path d="M 196.6 270.5 L 196.6 88.0 L 343.3 88.0" id="31,28" /><path d="M 196.6 270.5 L 196.6 101.0 L 343.3 101.0" id="31,27" /><path d="M 196.6 270.5 L 196.6 114.0 L 343.3 114.0" id="31,26" /><path d="M 196.6 270.5 L 196.6 127.1 L 343.3 127.1" id="31,25" /><path d="M 196.6 270.5 L 196.6 140.1 L 343.3 140.1" id="31,24" /><path d="M 196.6 270.5 L 196.6 153.2 L 343.3 153.2" id="31,23" /><path d="M 196.6 270.5 L 196.6 166.2 L 343.3 166.2" id="31,22" /><path d="M 196.6 270.5 L 196.6 179.3 L 343.3 179.3" id="31,21" /><path d="M 196.6 270.5 L 196.6 192.3 L 343.3 192.3" id="31,20" /><path d="M 196.6 270.5 L 196.6 205.3 L 343.3 205.3" id="31,19" /><path d="M 196.6 270.5 L 196.6 218.4 L 343.3 218.4" id="31,18" /><path d="M 196.6 270.5 L 196.6 231.4 L 343.3 231.4" id="31,17" /><path d="M 196.6 270.5 L 196.6 244.5 L 343.3 244.5" id="31,16" /><path d="M 196.6 270.5 L 196.6 257.5 L 343.3 257.5" id="31,15" /><path d="M 196.6 270.5 L 196.6 270.5 L 343.3 270.5" id="31,14" /><path d="M 196.6 270.5 L 196.6 283.6 L 343.3 283.6" id="31,13" /><path d="M 196.6 270.5 L 196.6 296.6 L 343.3 296.6" id="31,12" /><path d="M 196.6 270.5 L 196.6 309.7 L 343.3 309.7" id="31,11" /><path d="M 196.6 270.5 L 196.6 322.7 L 343.3 322.7" id="31,10" /><path d="M 196.6 270.5 L 196.6 335.7 L 343.3 335.7" id="31,9" /><path d="M 196.6 270.5 L 196.6 348.8 L 343.3 348.8" id="31,8" /><path d="M 196.6 270.5 L 196.6 361.8 L 343.3 361.8" id="31,7" /><path d="M 196.6 270.5 L 196.6 374.9 L 343.3 374.9" id="31,6" /><path d="M 196.6 270.5 L 196.6 387.9 L 343.3 387.9" id="31,5" /><path d="M 196.6 270.5 L 196.6 401.0 L 343.3 401.0" id="31,4" /><path d="M 196.6 270.5 L 196.6 414.0 L 343.3 414.0" id="31,3" /><path d="M 196.6 270.5 L 196.6 427.0 L 343.3 427.0" id="31,2" /><path d="M 196.6 270.5 L 196.6 440.1 L 343.3 440.1" id="31,1" /><path d="M 196.6 270.5 L 196.6 453.1 L 343.3 453.1" id="31,0" /></g><g class="toytree-AlignEdges" style="stroke:rgb(66.3%,66.3%,66.3%);stroke-dasharray:2, 4;stroke-linecap:round;stroke-opacity:1.0;stroke-width:2"><path d="M 343.3 453.1 L 343.3 453.1" /><path d="M 343.3 440.1 L 343.3 440.1" /><path d="M 343.3 427.0 L 343.3 427.0" /><path d="M 343.3 414.0 L 343.3 414.0" /><path d="M 343.3 401.0 L 343.3 401.0" /><path d="M 343.3 387.9 L 343.3 387.9" /><path d="M 343.3 374.9 L 343.3 374.9" /><path d="M 343.3 361.8 L 343.3 361.8" /><path d="M 343.3 348.8 L 343.3 348.8" /><path d="M 343.3 335.7 L 343.3 335.7" /><path d="M 343.3 322.7 L 343.3 322.7" /><path d="M 343.3 309.7 L 343.3 309.7" /><path d="M 343.3 296.6 L 343.3 296.6" /><path d="M 343.3 283.6 L 343.3 283.6" /><path d="M 343.3 270.5 L 343.3 270.5" /><path d="M 343.3 257.5 L 343.3 257.5" /><path d="M 343.3 244.5 L 343.3 244.5" /><path d="M 343.3 231.4 L 343.3 231.4" /><path d="M 343.3 218.4 L 343.3 218.4" /><path d="M 343.3 205.3 L 343.3 205.3" /><path d="M 343.3 192.3 L 343.3 192.3" /><path d="M 343.3 179.3 L 343.3 179.3" /><path d="M 343.3 166.2 L 343.3 166.2" /><path d="M 343.3 153.2 L 343.3 153.2" /><path d="M 343.3 140.1 L 343.3 140.1" /><path d="M 343.3 127.1 L 343.3 127.1" /><path d="M 343.3 114.0 L 343.3 114.0" /><path d="M 343.3 101.0 L 343.3 101.0" /><path d="M 343.3 88.0 L 343.3 88.0" /><path d="M 343.3 74.9 L 343.3 74.9" /><path d="M 343.3 61.9 L 343.3 61.9" /></g><g class="toytree-Nodes" style="fill:rgb(40%,76.1%,64.7%);fill-opacity:1.0;stroke:None;stroke-width:1"><g id="node-0" transform="translate(343.253,453.121)"><rect x="0.0" y="0.0" width="0.0" height="0.0" /></g><g id="node-1" transform="translate(343.253,440.080)"><rect x="0.0" y="0.0" width="0.0" height="0.0" /></g><g id="node-2" transform="translate(343.253,427.038)"><rect x="0.0" y="0.0" width="0.0" height="0.0" /></g><g id="node-3" transform="translate(343.253,413.997)"><rect x="0.0" y="0.0" width="0.0" height="0.0" /></g><g id="node-4" transform="translate(343.253,400.956)"><rect x="0.0" y="0.0" width="0.0" height="0.0" /></g><g id="node-5" transform="translate(343.253,387.914)"><rect x="0.0" y="0.0" width="0.0" height="0.0" /></g><g id="node-6" transform="translate(343.253,374.873)"><rect x="0.0" y="0.0" width="0.0" height="0.0" /></g><g id="node-7" transform="translate(343.253,361.831)"><rect x="0.0" y="0.0" width="0.0" height="0.0" /></g><g id="node-8" transform="translate(343.253,348.790)"><rect x="0.0" y="0.0" width="0.0" height="0.0" /></g><g id="node-9" transform="translate(343.253,335.749)"><rect x="0.0" y="0.0" width="0.0" height="0.0" /></g><g id="node-10" transform="translate(343.253,322.707)"><rect x="0.0" y="0.0" width="0.0" height="0.0" /></g><g id="node-11" transform="translate(343.253,309.666)"><rect x="0.0" y="0.0" width="0.0" height="0.0" /></g><g id="node-12" transform="translate(343.253,296.624)"><rect x="0.0" y="0.0" width="0.0" height="0.0" /></g><g id="node-13" transform="translate(343.253,283.583)"><rect x="0.0" y="0.0" width="0.0" height="0.0" /></g><g id="node-14" transform="translate(343.253,270.541)"><rect x="0.0" y="0.0" width="0.0" height="0.0" /></g><g id="node-15" transform="translate(343.253,257.500)"><rect x="0.0" y="0.0" width="0.0" height="0.0" /></g><g id="node-16" transform="translate(343.253,244.459)"><rect x="0.0" y="0.0" width="0.0" height="0.0" /></g><g id="node-17" transform="translate(343.253,231.417)"><rect x="0.0" y="0.0" width="0.0" height="0.0" /></g><g id="node-18" transform="translate(343.253,218.376)"><rect x="0.0" y="0.0" width="0.0" height="0.0" /></g><g id="node-19" transform="translate(343.253,205.334)"><rect x="0.0" y="0.0" width="0.0" height="0.0" /></g><g id="node-20" transform="translate(343.253,192.293)"><rect x="0.0" y="0.0" width="0.0" height="0.0" /></g><g id="node-21" transform="translate(343.253,179.251)"><rect x="0.0" y="0.0" width="0.0" height="0.0" /></g><g id="node-22" transform="translate(343.253,166.210)"><rect x="0.0" y="0.0" width="0.0" height="0.0" /></g><g id="node-23" transform="translate(343.253,153.169)"><rect x="0.0" y="0.0" width="0.0" height="0.0" /></g><g id="node-24" transform="translate(343.253,140.127)"><rect x="0.0" y="0.0" width="0.0" height="0.0" /></g><g id="node-25" transform="translate(343.253,127.086)"><rect x="0.0" y="0.0" width="0.0" height="0.0" /></g><g id="node-26" transform="translate(343.253,114.044)"><rect x="0.0" y="0.0" width="0.0" height="0.0" /></g><g id="node-27" transform="translate(343.253,101.003)"><rect x="0.0" y="0.0" width="0.0" height="0.0" /></g><g id="node-28" transform="translate(343.253,87.962)"><rect x="0.0" y="0.0" width="0.0" height="0.0" /></g><g id="node-29" transform="translate(343.253,74.920)"><rect x="0.0" y="0.0" width="0.0" height="0.0" /></g><g id="node-30" transform="translate(343.253,61.879)"><rect x="0.0" y="0.0" width="0.0" height="0.0" /></g><g id="node-31" transform="translate(196.627,270.541)"><rect x="-60.0" y="-7.5" width="120.0" height="15.0" /></g><g id="node-32" transform="translate(196.627,74.920)"><rect x="-60.0" y="-7.5" width="120.0" height="15.0" /></g><g id="node-33" transform="translate(196.627,61.879)"><rect x="-60.0" y="-7.5" width="120.0" height="15.0" /></g><g id="node-34" transform="translate(50.000,135.780)"><rect x="0.0" y="0.0" width="0.0" height="0.0" /></g></g><g class="toytree-NodeLabels" style="fill:rgb(14.9%,14.9%,14.9%);fill-opacity:1.0;font-size:9px;stroke:none"><g transform="translate(174.11,272.84)"><title>idx: 31
dist: 1.0000
support: 0.0000
height: 1.0000
name: Algonquian</title><text>Algonquian</text></g><g transform="translate(184.87,77.22)"><title>idx: 32
dist: 1.0000
support: 0.0000
height: 1.0000
name: Yurok</title><text>Yurok</text></g><g transform="translate(185.38,64.18)"><title>idx: 33
dist: 1.0000
support: 0.0000
height: 1.0000
name: Wiyot</title><text>Wiyot</text></g></g><g class="toytree-TipLabels" style="fill:rgb(14.9%,14.9%,14.9%);fill-opacity:1.0;font-family:helvetica;font-size:11px;font-weight:normal;stroke:none;white-space:pre"><g transform="translate(343.25,453.12)rotate(0)"><text x="5.00" y="2.81" style="">Unami</text></g><g transform="translate(343.25,440.08)rotate(0)"><text x="5.00" y="2.81" style="">Shawnee</text></g><g transform="translate(343.25,427.04)rotate(0)"><text x="5.00" y="2.81" style="">Passamaquoddy-Maliseet</text></g><g transform="translate(343.25,414.00)rotate(0)"><text x="5.00" y="2.81" style="">Powhatan</text></g><g transform="translate(343.25,400.96)rotate(0)"><text x="5.00" y="2.81" style="">Potawatomi</text></g><g transform="translate(343.25,387.91)rotate(0)"><text x="5.00" y="2.81" style="">Ojibwa__Severn_</text></g><g transform="translate(343.25,374.87)rotate(0)"><text x="5.00" y="2.81" style="">Ojibwe__Minnesota_</text></g><g transform="translate(343.25,361.83)rotate(0)"><text x="5.00" y="2.81" style="">Ojibwa__Eastern_</text></g><g transform="translate(343.25,348.79)rotate(0)"><text x="5.00" y="2.81" style="">Naskapi</text></g><g transform="translate(343.25,335.75)rotate(0)"><text x="5.00" y="2.81" style="">Nanticoke</text></g><g transform="translate(343.25,322.71)rotate(0)"><text x="5.00" y="2.81" style="">Massachusett</text></g><g transform="translate(343.25,309.67)rotate(0)"><text x="5.00" y="2.81" style="">Montagnais</text></g><g transform="translate(343.25,296.62)rotate(0)"><text x="5.00" y="2.81" style="">Munsee</text></g><g transform="translate(343.25,283.58)rotate(0)"><text x="5.00" y="2.81" style="">Micmac</text></g><g transform="translate(343.25,270.54)rotate(0)"><text x="5.00" y="2.81" style="">Mahican</text></g><g transform="translate(343.25,257.50)rotate(0)"><text x="5.00" y="2.81" style="">Menomini</text></g><g transform="translate(343.25,244.46)rotate(0)"><text x="5.00" y="2.81" style="">Michif</text></g><g transform="translate(343.25,231.42)rotate(0)"><text x="5.00" y="2.81" style="">Kickapoo</text></g><g transform="translate(343.25,218.38)rotate(0)"><text x="5.00" y="2.81" style="">Illinois</text></g><g transform="translate(343.25,205.33)rotate(0)"><text x="5.00" y="2.81" style="">Fox</text></g><g transform="translate(343.25,192.29)rotate(0)"><text x="5.00" y="2.81" style="">Cheyenne</text></g><g transform="translate(343.25,179.25)rotate(0)"><text x="5.00" y="2.81" style="">Cree__Plains_</text></g><g transform="translate(343.25,166.21)rotate(0)"><text x="5.00" y="2.81" style="">Chippewa__Red_Lake_and_Pillager_</text></g><g transform="translate(343.25,153.17)rotate(0)"><text x="5.00" y="2.81" style="">Cree__Swampy_</text></g><g transform="translate(343.25,140.13)rotate(0)"><text x="5.00" y="2.81" style="">Blackfoot</text></g><g transform="translate(343.25,127.09)rotate(0)"><text x="5.00" y="2.81" style="">Atikamekw</text></g><g transform="translate(343.25,114.04)rotate(0)"><text x="5.00" y="2.81" style="">Algonquin</text></g><g transform="translate(343.25,101.00)rotate(0)"><text x="5.00" y="2.81" style="">Arapaho</text></g><g transform="translate(343.25,87.96)rotate(0)"><text x="5.00" y="2.81" style="">Abenaki__Western_</text></g><g transform="translate(343.25,74.92)rotate(0)"><text x="5.00" y="2.81" style="">Yurok</text></g><g transform="translate(343.25,61.88)rotate(0)"><text x="5.00" y="2.81" style="">Wiyot</text></g></g></g></g><g class="toyplot-coordinates-Axis" id="t8c669c82074745d5bb5d1cd33676c005" transform="translate(50.0,465.0)translate(0,20.0)"><line x1="0" y1="0" x2="293.2530680135975" y2="0" style="" /><g><line x1="293.2530680135975" y1="0" x2="293.2530680135975" y2="-5" style="" /><line x1="234.60245441087804" y1="0" x2="234.60245441087804" y2="-5" style="" /><line x1="175.95184080815852" y1="0" x2="175.95184080815852" y2="-5" style="" /><line x1="117.30122720543898" y1="0" x2="117.30122720543898" y2="-5" style="" /><line x1="58.65061360271949" y1="0" x2="58.65061360271949" y2="-5" style="" /><line x1="0.0" y1="0" x2="0.0" y2="-5" style="" /></g><g><g transform="translate(293.2530680135975,6)"><text x="-6.95" y="8.555" style="fill:rgb(16.1%,15.3%,14.1%);fill-opacity:1.0;font-family:helvetica;font-size:10.0px;font-weight:normal;stroke:none;vertical-align:baseline;white-space:pre">0.0</text></g><g transform="translate(234.60245441087804,6)"><text x="-6.95" y="8.555" style="fill:rgb(16.1%,15.3%,14.1%);fill-opacity:1.0;font-family:helvetica;font-size:10.0px;font-weight:normal;stroke:none;vertical-align:baseline;white-space:pre">0.4</text></g><g transform="translate(175.95184080815852,6)"><text x="-6.95" y="8.555" style="fill:rgb(16.1%,15.3%,14.1%);fill-opacity:1.0;font-family:helvetica;font-size:10.0px;font-weight:normal;stroke:none;vertical-align:baseline;white-space:pre">0.8</text></g><g transform="translate(117.30122720543898,6)"><text x="-6.95" y="8.555" style="fill:rgb(16.1%,15.3%,14.1%);fill-opacity:1.0;font-family:helvetica;font-size:10.0px;font-weight:normal;stroke:none;vertical-align:baseline;white-space:pre">1.2</text></g><g transform="translate(58.65061360271949,6)"><text x="-6.95" y="8.555" style="fill:rgb(16.1%,15.3%,14.1%);fill-opacity:1.0;font-family:helvetica;font-size:10.0px;font-weight:normal;stroke:none;vertical-align:baseline;white-space:pre">1.6</text></g><g transform="translate(0.0,6)"><text x="-6.95" y="8.555" style="fill:rgb(16.1%,15.3%,14.1%);fill-opacity:1.0;font-family:helvetica;font-size:10.0px;font-weight:normal;stroke:none;vertical-align:baseline;white-space:pre">2.0</text></g></g><g class="toyplot-coordinates-Axis-coordinates" style="visibility:hidden" transform=""><line x1="0" x2="0" y1="-3.0" y2="4.5" style="stroke:rgb(43.9%,50.2%,56.5%);stroke-opacity:1.0;stroke-width:1.0" /><text x="0" y="-6" style="alignment-baseline:alphabetic;fill:rgb(43.9%,50.2%,56.5%);fill-opacity:1.0;font-size:10px;font-weight:normal;stroke:none;text-anchor:middle" /></g></g><g transform="translate(300.0,42.0)"><text x="-254.03" y="-4.823" style="fill:rgb(16.1%,15.3%,14.1%);fill-opacity:1.0;font-family:helvetica;font-size:14.0px;font-weight:bold;stroke:none;vertical-align:baseline;white-space:pre">family-algic - Genealogical classification of the languages in the family Algic</text></g></g></svg>